if (_typeface_js && _typeface_js.loadFace) _typeface_js.loadFace({"glyphs":{"¦":{"x_min":278,"x_max":418,"ha":694,"o":"m 278 277 l 418 277 l 418 -237 l 278 -237 l 278 277 m 278 971 l 418 971 l 418 457 l 278 457 l 278 971 "},"Ž":{"x_min":41,"x_max":630,"ha":672,"o":"m 41 0 l 41 176 l 407 881 l 59 881 l 59 1044 l 614 1044 l 614 883 l 252 176 l 630 176 l 630 0 l 41 0 m 149 1325 l 233 1325 l 336 1223 l 438 1325 l 523 1325 l 405 1132 l 266 1132 l 149 1325 "},"Á":{"x_min":12,"x_max":746,"ha":760,"o":"m 291 419 l 457 419 l 373 856 l 291 419 m 12 0 l 247 1044 l 508 1044 l 746 0 l 536 0 l 484 262 l 260 262 l 210 0 l 12 0 m 285 1132 l 403 1325 l 577 1325 l 369 1132 l 285 1132 "},"Î":{"x_min":-1,"x_max":373,"ha":372,"o":"m 89 0 l 89 1044 l 284 1044 l 284 0 l 89 0 m -1 1132 l 116 1325 l 255 1325 l 373 1132 l 288 1132 l 186 1233 l 83 1132 l -1 1132 "},"e":{"x_min":57,"x_max":602,"ha":661,"o":"m 242 492 l 420 492 l 420 525 q 400 636 420 605 q 330 667 380 667 q 262 635 282 667 q 241 525 241 603 q 242 514 241 525 q 242 492 242 502 m 426 269 l 596 269 q 597 253 596 263 q 597 238 597 243 q 533 41 597 104 q 330 -21 469 -21 q 207 -2 257 -21 q 126 54 158 15 q 72 168 88 99 q 57 417 57 238 q 70 622 57 561 q 116 723 84 684 q 205 785 150 764 q 335 806 259 806 q 460 783 407 806 q 547 717 513 761 q 589 618 576 677 q 602 426 602 559 l 602 367 l 245 367 q 243 348 243 358 q 242 316 242 338 q 263 159 242 204 q 334 115 284 115 q 404 151 382 115 q 426 269 426 187 "},"»":{"x_min":93,"x_max":578,"ha":671,"o":"m 366 655 l 578 462 l 578 322 l 366 131 l 366 281 l 496 393 l 366 504 l 366 655 m 93 655 l 305 462 l 305 322 l 93 131 l 93 281 l 223 393 l 93 504 l 93 655 "},"∆":{"x_min":0,"x_max":968,"ha":968,"o":"m 483 752 l 262 174 l 705 174 l 483 752 m 381 999 l 586 999 l 968 0 l 0 0 l 381 999 "},"ò":{"x_min":56,"x_max":609,"ha":664,"o":"m 242 400 l 242 382 q 260 158 242 199 q 330 118 278 118 q 404 156 385 118 q 423 355 423 194 l 423 387 l 423 432 q 403 626 423 586 q 332 666 384 666 q 261 629 280 666 q 242 454 242 593 l 242 400 m 56 392 q 117 717 56 629 q 332 806 178 806 q 547 717 486 806 q 609 392 609 629 q 547 66 609 154 q 332 -21 486 -21 q 117 66 178 -21 q 56 392 56 154 m 427 868 l 342 868 l 135 1061 l 308 1061 l 427 868 "},"^":{"x_min":282,"x_max":1105,"ha":1389,"o":"m 608 990 l 778 990 l 1105 610 l 945 610 l 694 861 l 441 610 l 282 610 l 608 990 "},"«":{"x_min":93,"x_max":578,"ha":671,"o":"m 578 655 l 578 504 l 447 393 l 578 281 l 578 131 l 366 322 l 366 462 l 578 655 m 305 655 l 305 504 l 174 393 l 305 281 l 305 131 l 93 322 l 93 462 l 305 655 "},"∙":{"x_min":65,"x_max":282,"ha":347,"o":"m 65 514 q 96 591 65 559 q 173 623 128 623 q 249 590 217 623 q 282 514 282 558 q 250 438 282 470 q 173 407 218 407 q 96 437 128 407 q 65 514 65 468 "},"í":{"x_min":73,"x_max":365,"ha":336,"o":"m 78 0 l 78 785 l 258 785 l 258 0 l 78 0 m 73 868 l 191 1061 l 365 1061 l 157 868 l 73 868 "},"ˆ":{"x_min":160,"x_max":534,"ha":694,"o":"m 160 868 l 277 1061 l 416 1061 l 534 868 l 449 868 l 347 969 l 244 868 l 160 868 "},"µ":{"x_min":-43,"x_max":803,"ha":847,"o":"m 139 741 l 335 741 l 283 445 q 267 342 273 391 q 262 263 262 294 q 290 169 262 200 q 377 139 319 139 q 483 194 445 139 q 545 392 520 250 l 607 741 l 803 741 l 672 0 l 490 0 l 502 79 q 439 2 474 26 q 356 -22 404 -22 q 276 -2 311 -22 q 212 59 240 17 l 151 -297 l -43 -297 l 139 741 "},"č":{"x_min":56,"x_max":575,"ha":631,"o":"m 574 308 q 574 290 574 299 q 575 263 575 281 q 513 48 575 118 q 320 -21 451 -21 q 114 66 173 -21 q 56 392 56 154 q 114 717 56 629 q 321 806 173 806 q 512 741 450 806 q 574 541 574 677 l 574 514 l 400 514 l 400 531 q 381 634 400 603 q 322 666 363 666 q 261 635 280 666 q 243 533 243 604 l 243 262 q 260 149 243 181 q 320 118 278 118 q 385 154 367 118 q 403 291 403 191 l 403 308 l 574 308 m 128 1061 l 212 1061 l 315 959 l 417 1061 l 502 1061 l 384 868 l 245 868 l 128 1061 "},"’":{"x_min":82,"x_max":250,"ha":347,"o":"m 82 680 l 82 746 q 145 781 122 752 q 168 857 168 810 l 168 868 l 82 868 l 82 1044 l 250 1044 l 250 858 q 204 738 250 786 q 82 680 158 690 "},"-":{"x_min":62,"x_max":393,"ha":456,"o":"m 62 311 l 62 473 l 393 473 l 393 311 l 62 311 "},"Q":{"x_min":68,"x_max":798,"ha":815,"o":"m 452 137 l 396 196 l 492 294 l 533 251 q 544 360 541 302 q 548 484 548 417 q 518 845 548 775 q 406 915 488 915 q 296 848 326 915 q 267 521 267 782 q 295 199 267 268 q 398 131 323 131 q 419 132 407 131 q 452 137 431 133 m 579 9 q 502 -16 544 -8 q 406 -25 459 -25 q 240 5 303 -25 q 132 107 177 36 q 83 258 99 158 q 68 522 68 357 q 83 786 68 687 q 132 936 99 885 q 240 1038 177 1008 q 406 1069 303 1069 q 572 1038 509 1069 q 681 936 635 1008 q 729 786 713 885 q 745 522 745 686 q 729 249 745 349 q 681 107 713 148 l 798 -9 l 698 -110 l 579 9 "},"M":{"x_min":89,"x_max":960,"ha":1050,"o":"m 89 0 l 89 1044 l 381 1044 l 524 368 l 667 1044 l 960 1044 l 960 0 l 774 0 l 778 926 l 584 0 l 465 0 l 271 926 l 276 0 l 89 0 "},"œ":{"x_min":58,"x_max":912,"ha":966,"o":"m 585 490 l 742 490 l 742 551 q 722 637 742 610 q 658 664 702 664 q 601 633 618 664 q 584 531 584 602 q 584 512 584 526 q 585 490 585 498 m 234 442 l 234 387 q 252 159 234 204 q 320 115 270 115 q 388 153 369 115 q 408 310 408 192 l 408 421 q 389 619 408 575 q 320 664 370 664 q 252 627 270 664 q 234 442 234 590 m 493 58 q 418 -2 465 16 q 293 -21 370 -21 q 108 61 159 -21 q 58 380 58 143 q 66 586 58 508 q 93 697 75 664 q 175 779 124 753 q 305 806 226 806 q 411 785 367 806 q 489 718 455 764 q 568 784 523 762 q 674 806 613 806 q 781 784 733 806 q 859 722 829 762 q 899 631 887 684 q 912 455 912 579 l 912 437 l 912 363 l 584 363 l 584 314 q 600 147 584 180 q 664 115 617 115 q 724 144 706 115 q 742 247 742 173 l 742 268 l 908 268 l 908 238 q 852 42 908 105 q 676 -21 796 -21 q 563 -2 605 -21 q 493 58 521 16 "},"{":{"x_min":107,"x_max":599,"ha":694,"o":"m 599 1002 l 599 860 q 581 860 592 860 q 567 861 571 861 q 474 835 498 861 q 450 725 450 809 l 450 562 q 419 420 450 462 q 309 359 389 377 q 419 300 389 341 q 450 158 450 258 l 450 -4 q 473 -113 450 -87 q 567 -139 497 -139 q 581 -138 571 -139 q 599 -138 592 -138 l 599 -280 q 572 -280 589 -280 q 547 -281 555 -281 q 434 -273 479 -281 q 356 -248 388 -265 q 301 -186 317 -225 q 286 -50 286 -147 l 286 119 q 251 251 286 212 q 134 290 216 290 q 121 289 130 290 q 107 289 111 289 l 107 431 q 121 430 111 431 q 134 429 130 429 q 251 468 216 429 q 286 601 286 508 l 286 771 q 301 907 286 868 q 356 970 317 947 q 434 995 388 987 q 547 1003 479 1003 q 572 1002 555 1003 q 599 1002 589 1002 "},"¼":{"x_min":38,"x_max":1076,"ha":1107,"o":"m 787 199 l 909 199 l 909 438 l 787 199 m 907 0 l 907 115 l 699 115 l 699 209 l 893 578 l 1020 578 l 1020 202 l 1076 202 l 1076 115 l 1020 115 l 1020 0 l 907 0 m 309 -20 l 205 -20 l 793 1051 l 899 1051 l 309 -20 m 184 454 l 184 867 l 38 867 l 38 936 q 164 964 118 937 q 219 1043 210 991 l 299 1043 l 299 454 l 184 454 "},"#":{"x_min":31,"x_max":1038,"ha":1068,"o":"m 481 575 l 421 409 l 591 409 l 650 575 l 481 575 m 481 993 l 631 993 l 532 711 l 696 711 l 796 993 l 946 993 l 846 711 l 1038 711 l 987 575 l 797 575 l 740 411 l 937 411 l 889 275 l 692 275 l 591 -7 l 441 -7 l 542 275 l 376 275 l 275 -7 l 126 -7 l 225 275 l 31 275 l 82 411 l 273 411 l 332 575 l 129 575 l 179 711 l 380 711 l 481 993 "},"Ê":{"x_min":89,"x_max":634,"ha":688,"o":"m 89 0 l 89 1044 l 625 1044 l 625 870 l 282 870 l 282 628 l 602 628 l 602 463 l 282 463 l 282 176 l 634 176 l 634 0 l 89 0 m 164 1132 l 281 1325 l 420 1325 l 538 1132 l 453 1132 l 351 1233 l 248 1132 l 164 1132 "},")":{"x_min":45,"x_max":366,"ha":457,"o":"m 158 -264 l 45 -264 q 149 21 115 -140 q 184 397 184 182 q 150 786 184 616 q 50 1069 116 956 l 163 1069 q 313 769 261 933 q 366 431 366 605 q 315 57 366 226 q 158 -264 265 -110 "},"Å":{"x_min":12,"x_max":746,"ha":760,"o":"m 322 1201 q 338 1162 322 1179 q 377 1146 355 1146 q 415 1161 400 1146 q 431 1201 431 1177 q 416 1239 431 1224 q 377 1255 401 1255 q 338 1239 354 1255 q 322 1201 322 1223 m 241 1200 q 280 1296 241 1256 q 377 1336 320 1336 q 472 1296 433 1336 q 512 1200 512 1256 q 472 1104 512 1144 q 377 1065 433 1065 q 280 1104 320 1065 q 241 1200 241 1144 m 291 419 l 457 419 l 373 856 l 291 419 m 12 0 l 247 1029 l 507 1029 l 746 0 l 535 0 l 484 262 l 260 262 l 210 0 l 12 0 "},"¸":{"x_min":184,"x_max":515,"ha":694,"o":"m 184 -216 q 279 -231 248 -227 q 328 -235 310 -235 q 372 -223 358 -235 q 387 -186 387 -211 q 370 -155 387 -165 q 316 -145 353 -145 l 301 -145 l 301 0 l 379 0 l 379 -57 q 480 -96 445 -63 q 515 -187 515 -130 q 469 -292 515 -255 q 342 -329 424 -329 q 276 -324 314 -329 q 184 -310 238 -320 l 184 -216 "},"a":{"x_min":62,"x_max":626,"ha":673,"o":"m 425 410 q 286 318 322 359 q 250 222 250 278 q 269 145 250 170 q 330 121 288 121 q 401 162 377 121 q 425 286 425 203 l 425 410 m 450 0 q 439 26 443 8 q 430 76 435 44 q 356 3 401 28 q 251 -21 311 -21 q 111 39 161 -21 q 62 206 62 99 q 105 360 62 303 q 279 475 149 418 q 315 492 292 481 q 422 598 422 537 q 401 655 422 635 q 341 676 380 676 q 268 649 291 676 q 245 566 245 623 l 245 551 l 69 551 q 133 743 69 683 q 341 804 198 804 q 542 748 484 804 q 600 555 600 693 l 600 112 q 606 53 600 80 q 626 0 612 26 l 450 0 "},"=":{"x_min":172,"x_max":984,"ha":1157,"o":"m 172 336 l 984 336 l 984 201 l 172 201 l 172 336 m 172 628 l 984 628 l 984 493 l 172 493 l 172 628 "},"˚":{"x_min":201,"x_max":494,"ha":694,"o":"m 288 1016 q 305 974 288 991 q 348 958 322 958 q 390 974 373 958 q 407 1016 407 991 q 390 1059 407 1042 q 348 1077 373 1077 q 305 1059 322 1077 q 288 1016 288 1042 m 201 1018 q 243 1121 201 1078 q 346 1164 286 1164 q 450 1121 407 1164 q 494 1018 494 1078 q 451 913 494 956 q 346 871 408 871 q 243 913 285 871 q 201 1018 201 956 "},"ú":{"x_min":77,"x_max":595,"ha":672,"o":"m 595 785 l 595 0 l 417 0 l 417 78 q 347 4 389 29 q 252 -21 305 -21 q 121 27 166 -21 q 77 168 77 76 l 77 785 l 252 785 l 252 272 q 269 164 252 194 q 329 135 287 135 q 394 167 375 135 q 413 283 413 200 l 413 785 l 595 785 m 241 868 l 359 1061 l 533 1061 l 325 868 l 241 868 "},"¯":{"x_min":171,"x_max":524,"ha":694,"o":"m 171 909 l 171 1019 l 524 1019 l 524 909 l 171 909 "},"Z":{"x_min":41,"x_max":630,"ha":672,"o":"m 41 0 l 41 176 l 407 881 l 59 881 l 59 1044 l 614 1044 l 614 883 l 252 176 l 630 176 l 630 0 l 41 0 "},"u":{"x_min":77,"x_max":595,"ha":672,"o":"m 595 785 l 595 0 l 417 0 l 417 78 q 347 4 389 29 q 252 -21 305 -21 q 121 27 166 -21 q 77 168 77 76 l 77 785 l 252 785 l 252 272 q 269 164 252 194 q 329 135 287 135 q 394 167 375 135 q 413 283 413 200 l 413 785 l 595 785 "},"k":{"x_min":79,"x_max":611,"ha":600,"o":"m 79 0 l 79 1044 l 255 1044 l 255 498 l 417 785 l 608 785 l 411 485 l 611 0 l 413 0 l 299 314 l 255 244 l 255 0 l 79 0 "},"Ù":{"x_min":89,"x_max":742,"ha":829,"o":"m 89 1044 l 284 1044 l 284 340 q 313 177 284 220 q 418 134 342 134 q 521 177 492 134 q 550 343 550 220 l 550 1044 l 742 1044 l 742 323 q 730 170 742 218 q 690 84 718 121 q 579 2 648 29 q 415 -25 510 -25 q 162 52 236 -25 q 89 323 89 130 l 89 1044 m 511 1132 l 426 1132 l 219 1325 l 392 1325 l 511 1132 "},"¢":{"x_min":98,"x_max":588.359375,"ha":694,"o":"m 289 -222 l 289 0 q 139 95 181 13 q 98 419 98 177 q 139 730 98 654 q 289 821 180 806 l 289 1010 l 412 1010 l 412 821 q 544 746 500 809 q 588 571 588 684 q 588 544 588 553 q 587 529 587 536 l 413 529 l 413 562 q 399 659 413 636 q 350 683 385 683 q 296 650 311 683 q 282 495 282 618 l 282 416 l 282 320 q 296 172 282 205 q 348 140 310 140 q 400 171 386 140 q 414 296 414 202 l 414 326 l 585 326 q 586 306 585 319 q 587 287 587 293 q 543 78 587 149 q 412 0 500 7 l 412 -222 l 289 -222 "},"Ş":{"x_min":66,"x_max":691,"ha":761,"o":"m 68 367 l 263 367 l 263 299 q 287 168 263 203 q 370 134 311 134 q 463 165 431 134 q 496 257 496 196 q 473 337 496 303 q 376 423 451 370 l 277 494 q 113 641 148 583 q 79 788 79 700 q 156 994 79 919 q 371 1069 234 1069 q 593 989 516 1069 q 671 761 671 910 q 670 738 671 746 q 669 724 670 730 l 485 724 l 485 751 q 457 873 485 836 q 366 910 429 910 q 292 882 319 910 q 266 806 266 855 q 385 660 266 740 l 387 659 l 494 586 q 650 443 609 510 q 691 271 691 376 q 609 52 691 129 q 376 -25 528 -25 q 142 56 219 -25 q 66 304 66 137 q 68 362 66 322 l 68 367 m 217 -216 q 312 -231 281 -227 q 361 -235 343 -235 q 405 -223 391 -235 q 420 -186 420 -211 q 403 -155 420 -165 q 349 -145 386 -145 l 334 -145 l 334 0 l 412 0 l 412 -57 q 513 -96 478 -63 q 548 -187 548 -130 q 502 -292 548 -255 q 375 -329 457 -329 q 309 -324 347 -329 q 217 -310 271 -320 l 217 -216 "},"é":{"x_min":57,"x_max":602,"ha":661,"o":"m 242 492 l 420 492 l 420 525 q 400 636 420 605 q 330 667 380 667 q 262 635 282 667 q 241 525 241 603 q 242 514 241 525 q 242 492 242 502 m 426 269 l 596 269 q 597 253 596 263 q 597 238 597 243 q 533 41 597 104 q 330 -21 469 -21 q 207 -2 257 -21 q 126 54 158 15 q 72 168 88 99 q 57 417 57 238 q 70 622 57 561 q 116 723 84 684 q 205 785 150 764 q 335 806 259 806 q 460 783 407 806 q 547 717 513 761 q 589 618 576 677 q 602 426 602 559 l 602 367 l 245 367 q 243 348 243 358 q 242 316 242 338 q 263 159 242 204 q 334 115 284 115 q 404 151 382 115 q 426 269 426 187 m 235 868 l 353 1061 l 527 1061 l 319 868 l 235 868 "},"B":{"x_min":89,"x_max":693,"ha":757,"o":"m 278 149 l 358 149 q 463 185 433 149 q 494 313 494 222 q 460 444 494 408 q 336 480 427 480 l 278 480 l 278 149 m 278 620 l 343 620 q 444 651 416 620 q 472 769 472 683 q 443 873 472 845 q 337 902 415 902 l 278 902 l 278 620 m 89 0 l 89 1044 l 401 1044 q 601 981 535 1044 q 667 789 667 919 q 634 628 667 685 q 537 560 602 571 q 651 487 610 550 q 693 321 693 424 q 623 77 693 155 q 406 0 554 0 l 89 0 "},"…":{"x_min":144,"x_max":1246,"ha":1389,"o":"m 144 0 l 144 187 l 319 187 l 319 0 l 144 0 m 607 0 l 607 187 l 782 187 l 782 0 l 607 0 m 1071 0 l 1071 187 l 1246 187 l 1246 0 l 1071 0 "},"H":{"x_min":89,"x_max":742,"ha":831,"o":"m 89 0 l 89 1044 l 282 1044 l 282 634 l 549 634 l 549 1044 l 742 1044 l 742 0 l 549 0 l 549 473 l 282 473 l 282 0 l 89 0 "},"î":{"x_min":-19,"x_max":355,"ha":336,"o":"m 78 0 l 78 785 l 258 785 l 258 0 l 78 0 m -19 868 l 98 1061 l 237 1061 l 355 868 l 270 868 l 168 969 l 65 868 l -19 868 "},"−":{"x_min":172,"x_max":984,"ha":1157,"o":"m 172 484 l 984 484 l 984 346 l 172 346 l 172 484 "},"≠":{"x_min":172,"x_max":984,"ha":1157,"o":"m 811 836 l 912 756 l 807 626 l 984 626 l 984 496 l 720 496 l 590 334 l 984 334 l 984 203 l 504 203 l 338 -6 l 238 74 l 342 203 l 172 203 l 172 334 l 427 334 l 556 496 l 172 496 l 172 626 l 643 626 l 811 836 "},"¥":{"x_min":22,"x_max":748,"ha":772,"o":"m 748 1032 l 602 715 l 739 715 l 739 618 l 558 618 l 514 522 l 739 522 l 739 425 l 479 425 l 479 0 l 297 0 l 297 425 l 32 425 l 32 522 l 259 522 l 216 618 l 32 618 l 32 715 l 170 715 l 22 1032 l 214 1032 l 389 629 l 560 1032 l 748 1032 "},"U":{"x_min":89,"x_max":742,"ha":829,"o":"m 89 1044 l 284 1044 l 284 340 q 313 177 284 220 q 418 134 342 134 q 521 177 492 134 q 550 343 550 220 l 550 1044 l 742 1044 l 742 323 q 730 170 742 218 q 690 84 718 121 q 579 2 648 29 q 415 -25 510 -25 q 162 52 236 -25 q 89 323 89 130 l 89 1044 "},"Ñ":{"x_min":89,"x_max":739,"ha":828,"o":"m 89 0 l 89 1044 l 288 1044 l 560 313 l 555 1044 l 739 1044 l 739 0 l 540 0 l 266 731 l 272 0 l 89 0 m 282 1140 l 223 1140 q 267 1258 236 1219 q 344 1298 297 1298 q 365 1296 354 1298 q 385 1292 375 1295 l 460 1270 q 475 1267 467 1268 q 492 1266 484 1266 q 526 1278 513 1266 q 544 1317 538 1291 l 604 1317 q 559 1198 592 1240 q 477 1156 526 1156 q 459 1157 467 1156 q 442 1161 451 1158 l 360 1184 q 349 1187 355 1186 q 338 1189 344 1189 q 302 1176 316 1189 q 282 1140 288 1163 "},"F":{"x_min":89,"x_max":635,"ha":679,"o":"m 89 0 l 89 1044 l 635 1044 l 635 873 l 284 873 l 284 626 l 615 626 l 615 459 l 284 459 l 284 0 l 89 0 "},"*":{"x_min":86,"x_max":609,"ha":694,"o":"m 347 683 l 249 547 l 147 620 l 244 756 l 86 808 l 124 929 l 285 876 l 285 1044 l 410 1044 l 410 876 l 570 929 l 609 808 l 450 756 l 547 620 l 446 547 l 347 683 "},"†":{"x_min":54,"x_max":640,"ha":694,"o":"m 259 -121 l 259 603 l 54 603 l 54 766 l 259 766 l 259 1044 l 435 1044 l 435 766 l 640 766 l 640 603 l 435 603 l 435 -121 l 259 -121 "},"∕":{"x_min":-232,"x_max":462,"ha":232,"o":"m -127 -20 l -232 -20 l 356 1051 l 462 1051 l -127 -20 "},"°":{"x_min":24,"x_max":435,"ha":457,"o":"m 230 906 q 145 871 180 906 q 110 787 110 836 q 144 702 110 737 q 230 668 179 668 q 314 703 279 668 q 349 787 349 738 q 314 871 349 836 q 230 906 279 906 m 229 993 q 374 932 314 993 q 435 786 435 871 q 374 641 435 701 q 228 581 314 581 q 83 640 142 581 q 24 786 24 700 q 84 932 24 872 q 229 993 144 993 "},"å":{"x_min":62,"x_max":626,"ha":673,"o":"m 425 410 q 286 318 322 359 q 250 222 250 278 q 269 145 250 170 q 330 121 288 121 q 401 162 377 121 q 425 286 425 203 l 425 410 m 450 0 q 439 26 444 8 q 430 76 435 44 q 356 3 401 28 q 251 -21 311 -21 q 111 39 161 -21 q 62 206 62 99 q 105 360 62 303 q 280 475 149 418 q 316 492 292 481 q 422 598 422 537 q 401 655 422 635 q 341 676 380 676 q 268 649 291 676 q 245 566 245 623 l 245 551 l 69 551 q 133 743 69 683 q 341 804 198 804 q 542 748 484 804 q 600 555 600 693 l 600 112 q 606 53 600 80 q 626 0 612 26 l 450 0 m 304 979 q 320 941 304 957 q 357 925 336 925 q 395 940 379 925 q 411 979 411 956 q 395 1016 411 1001 q 357 1032 380 1032 q 319 1016 335 1032 q 304 979 304 1000 m 222 978 q 261 1074 222 1034 q 356 1114 300 1114 q 452 1074 412 1114 q 493 978 493 1034 q 452 882 493 922 q 356 843 412 843 q 261 882 300 843 q 222 978 222 922 "},"0":{"x_min":60,"x_max":635,"ha":694,"o":"m 440 429 l 440 711 q 420 871 440 835 q 347 907 400 907 q 274 870 294 907 q 255 702 255 833 l 255 602 l 255 319 q 274 158 255 194 q 347 123 294 123 q 420 160 400 123 q 440 328 440 197 l 440 429 m 60 523 q 71 799 60 709 q 111 935 83 890 q 204 1023 148 996 q 347 1051 260 1051 q 490 1023 434 1051 q 583 935 546 996 q 623 799 611 890 q 635 523 635 709 q 623 242 635 332 q 586 105 612 151 q 491 9 548 39 q 347 -20 434 -20 q 203 9 260 -20 q 108 105 146 39 q 71 238 82 150 q 60 523 60 325 "},"":{"x_min":77,"x_max":1021,"ha":1097,"o":"m 567 824 q 566 834 566 828 q 565 849 565 839 q 630 1005 565 934 q 790 1094 694 1077 q 791 1079 791 1087 q 791 1052 791 1070 q 721 893 791 963 q 583 823 651 823 l 578 823 q 573 824 576 823 q 567 824 570 824 m 1021 273 q 881 40 943 105 q 743 -24 820 -24 q 654 -1 709 -24 q 571 20 599 20 q 482 -1 540 20 q 396 -24 424 -24 q 309 5 353 -24 q 221 95 265 35 q 114 295 152 190 q 77 499 77 401 q 161 741 77 648 q 380 835 246 835 q 485 811 426 835 q 570 788 544 788 q 652 812 593 788 q 755 836 711 836 q 890 809 830 836 q 999 725 949 782 q 896 626 930 680 q 863 502 863 571 q 903 366 863 425 q 1021 273 944 307 "},"”":{"x_min":82,"x_max":518,"ha":615,"o":"m 250 1044 l 250 858 q 204 738 250 786 q 82 680 158 690 l 82 746 q 145 781 122 752 q 168 857 168 810 l 168 868 l 82 868 l 82 1044 l 250 1044 m 518 1044 l 518 858 q 472 738 518 786 q 350 680 426 690 l 350 746 q 413 781 390 752 q 436 857 436 810 l 436 868 l 350 868 l 350 1044 l 518 1044 "},"ö":{"x_min":56,"x_max":609,"ha":664,"o":"m 242 400 l 242 382 q 260 158 242 199 q 330 118 278 118 q 404 156 385 118 q 423 355 423 194 l 423 387 l 423 432 q 403 626 423 586 q 332 666 384 666 q 261 629 280 666 q 242 454 242 593 l 242 400 m 56 392 q 117 717 56 629 q 332 806 178 806 q 547 717 486 806 q 609 392 609 629 q 547 66 609 154 q 332 -21 486 -21 q 117 66 178 -21 q 56 392 56 154 m 373 884 l 373 1045 l 522 1045 l 522 884 l 373 884 m 141 884 l 141 1045 l 290 1045 l 290 884 l 141 884 "},"Õ":{"x_min":68,"x_max":745,"ha":815,"o":"m 267 521 q 296 197 267 264 q 407 131 326 131 q 516 196 487 131 q 546 521 546 261 q 516 848 546 782 q 406 915 486 915 q 296 848 326 915 q 267 521 267 782 m 68 522 q 83 787 68 688 q 132 936 99 886 q 240 1038 177 1008 q 406 1069 303 1069 q 572 1038 509 1069 q 681 936 635 1008 q 729 786 714 885 q 745 522 745 687 q 729 257 745 357 q 681 107 713 158 q 572 5 635 36 q 406 -25 509 -25 q 240 5 303 -25 q 132 107 177 36 q 83 256 99 157 q 68 522 68 355 m 277 1140 l 218 1140 q 262 1258 231 1219 q 339 1298 292 1298 q 360 1296 349 1298 q 380 1292 370 1295 l 455 1270 q 470 1267 462 1268 q 487 1266 479 1266 q 521 1278 508 1266 q 539 1317 533 1291 l 599 1317 q 554 1198 587 1240 q 472 1156 521 1156 q 454 1157 462 1156 q 437 1161 446 1158 l 355 1184 q 344 1187 350 1186 q 333 1189 339 1189 q 297 1176 311 1189 q 277 1140 283 1163 "},"ć":{"x_min":56,"x_max":575,"ha":631,"o":"m 574 308 q 574 290 574 299 q 575 263 575 281 q 513 48 575 118 q 320 -21 451 -21 q 114 66 173 -21 q 56 392 56 154 q 114 717 56 629 q 321 806 173 806 q 512 741 450 806 q 574 541 574 677 l 574 514 l 400 514 l 400 531 q 381 634 400 603 q 322 666 363 666 q 261 635 280 666 q 243 533 243 604 l 243 262 q 260 149 243 181 q 320 118 278 118 q 385 154 367 118 q 403 291 403 191 l 403 308 l 574 308 m 220 868 l 338 1061 l 512 1061 l 304 868 l 220 868 "},"þ":{"x_min":79,"x_max":617,"ha":675,"o":"m 261 66 l 261 -264 l 79 -264 l 79 1044 l 261 1044 l 261 711 q 315 781 276 756 q 410 806 355 806 q 570 715 524 806 q 617 396 617 625 q 571 66 617 154 q 410 -21 526 -21 q 321 1 358 -21 q 261 66 284 23 m 349 656 q 275 614 296 656 q 255 442 255 573 q 275 183 255 234 q 349 132 295 132 q 415 176 397 132 q 433 394 433 220 q 415 609 433 563 q 349 656 397 656 "},"]":{"x_min":53,"x_max":334,"ha":456,"o":"m 334 1044 l 334 -284 l 53 -284 l 53 -169 l 163 -169 l 163 929 l 53 929 l 53 1044 l 334 1044 "},"8":{"x_min":62,"x_max":633,"ha":694,"o":"m 262 772 q 281 664 262 695 q 346 634 300 634 q 412 665 392 634 q 433 772 433 697 q 412 880 433 849 q 344 911 392 911 q 281 879 300 911 q 262 772 262 848 m 346 496 q 273 456 293 496 q 253 297 253 416 q 273 166 253 201 q 346 131 294 131 q 421 168 400 131 q 442 312 442 205 q 420 455 442 415 q 346 496 398 496 m 214 566 q 116 642 149 585 q 83 791 83 699 q 150 984 83 918 q 348 1050 218 1050 q 545 982 477 1050 q 613 786 613 915 q 579 642 613 696 q 475 566 545 587 q 595 488 558 549 q 633 306 633 426 q 563 60 633 138 q 345 -18 493 -18 q 130 57 199 -18 q 62 291 62 132 q 98 481 62 416 q 214 566 135 546 "},"R":{"x_min":89,"x_max":791,"ha":802,"o":"m 277 602 l 389 602 q 507 635 474 602 q 540 757 540 669 q 503 866 540 835 q 372 898 467 898 l 277 898 l 277 602 m 89 0 l 89 1044 l 438 1044 q 665 979 596 1044 q 735 770 735 915 q 697 610 735 668 q 588 541 660 551 q 732 307 726 504 q 732 294 732 298 l 737 155 q 752 61 740 96 q 791 0 765 25 l 560 0 q 548 61 552 26 q 542 162 544 97 l 540 271 l 540 299 q 501 424 540 390 q 343 458 462 458 l 277 458 l 277 0 l 89 0 "},"o":{"x_min":56,"x_max":609,"ha":664,"o":"m 242 400 l 242 382 q 260 158 242 199 q 330 118 278 118 q 404 156 385 118 q 423 355 423 194 l 423 387 l 423 432 q 403 626 423 586 q 332 666 384 666 q 261 629 280 666 q 242 454 242 593 l 242 400 m 56 392 q 117 717 56 629 q 332 806 178 806 q 547 717 486 806 q 609 392 609 629 q 547 66 609 154 q 332 -21 486 -21 q 117 66 178 -21 q 56 392 56 154 "},"5":{"x_min":54,"x_max":633,"ha":694,"o":"m 54 334 l 234 334 l 234 306 q 260 168 234 214 q 339 122 286 122 q 417 176 393 122 q 442 354 442 231 q 414 518 442 467 q 328 569 387 569 q 262 545 288 569 q 232 484 236 522 l 64 484 l 91 1032 l 586 1032 l 586 865 l 235 865 l 224 654 q 287 699 253 685 q 367 713 321 713 q 566 626 500 713 q 633 367 633 540 q 561 71 633 164 q 334 -21 490 -21 q 122 59 190 -21 q 54 308 54 140 l 54 334 "},"õ":{"x_min":56,"x_max":609,"ha":664,"o":"m 242 400 l 242 382 q 260 158 242 199 q 330 118 278 118 q 404 156 385 118 q 423 355 423 194 l 423 387 l 423 432 q 403 626 423 586 q 332 666 384 666 q 261 629 280 666 q 242 454 242 593 l 242 400 m 56 392 q 117 717 56 629 q 332 806 178 806 q 547 717 486 806 q 609 392 609 629 q 547 66 609 154 q 332 -21 486 -21 q 117 66 178 -21 q 56 392 56 154 m 200 876 l 141 876 q 185 994 154 955 q 262 1034 215 1034 q 283 1032 272 1034 q 303 1028 293 1031 l 378 1006 q 393 1003 385 1004 q 410 1002 402 1002 q 444 1014 431 1002 q 462 1053 456 1027 l 522 1053 q 477 934 510 976 q 395 892 444 892 q 377 893 385 892 q 360 897 369 894 l 278 920 q 267 923 273 922 q 256 925 262 925 q 220 912 234 925 q 200 876 206 899 "},",":{"x_min":86,"x_max":261,"ha":347,"o":"m 86 -204 l 86 -133 q 154 -95 129 -128 q 180 -10 180 -63 l 180 0 l 86 0 l 86 187 l 261 187 l 261 -1 q 213 -141 261 -87 q 86 -204 166 -196 "},"d":{"x_min":57,"x_max":596,"ha":675,"o":"m 241 404 q 258 175 241 222 q 324 129 276 129 q 399 170 379 129 q 419 341 419 212 q 399 601 419 549 q 324 653 379 653 q 259 608 277 653 q 241 404 241 564 m 424 82 q 361 5 401 31 q 263 -21 321 -21 q 103 69 150 -21 q 57 388 57 159 q 102 716 57 626 q 259 806 147 806 q 353 784 315 806 q 414 718 391 762 l 414 1044 l 596 1044 l 596 0 l 424 0 l 424 82 "},"\"":{"x_min":53,"x_max":406,"ha":460,"o":"m 275 975 l 406 975 l 406 596 l 275 596 l 275 975 m 53 975 l 184 975 l 184 596 l 53 596 l 53 975 "},"˙":{"x_min":275,"x_max":419,"ha":694,"o":"m 275 886 l 275 1043 l 419 1043 l 419 886 l 275 886 "},"ê":{"x_min":57,"x_max":602,"ha":661,"o":"m 242 492 l 420 492 l 420 525 q 400 636 420 605 q 330 667 380 667 q 262 635 282 667 q 241 525 241 603 q 242 514 241 525 q 242 492 242 502 m 426 269 l 596 269 q 597 253 596 263 q 597 238 597 243 q 533 41 597 104 q 330 -21 469 -21 q 207 -2 257 -21 q 126 54 158 15 q 72 168 88 99 q 57 417 57 238 q 70 622 57 561 q 116 723 84 684 q 205 785 150 764 q 335 806 259 806 q 460 783 407 806 q 547 717 513 761 q 589 618 576 677 q 602 426 602 559 l 602 367 l 245 367 q 243 348 243 358 q 242 316 242 338 q 263 159 242 204 q 334 115 284 115 q 404 151 382 115 q 426 269 426 187 m 143 868 l 260 1061 l 399 1061 l 517 868 l 432 868 l 330 969 l 227 868 l 143 868 "},"„":{"x_min":82,"x_max":518,"ha":615,"o":"m 518 178 l 518 -9 q 472 -127 518 -80 q 350 -186 427 -175 l 350 -119 q 413 -85 391 -114 q 436 -10 436 -57 l 436 0 l 350 0 l 350 178 l 518 178 m 250 178 l 250 -9 q 204 -127 250 -80 q 82 -186 159 -175 l 82 -119 q 145 -85 122 -114 q 168 -10 168 -57 l 168 0 l 82 0 l 82 178 l 250 178 "},"Â":{"x_min":12,"x_max":746,"ha":760,"o":"m 291 419 l 457 419 l 373 856 l 291 419 m 12 0 l 247 1044 l 508 1044 l 746 0 l 536 0 l 484 262 l 260 262 l 210 0 l 12 0 m 193 1132 l 310 1325 l 449 1325 l 567 1132 l 482 1132 l 380 1233 l 277 1132 l 193 1132 "},"Í":{"x_min":89,"x_max":383,"ha":372,"o":"m 89 0 l 89 1044 l 284 1044 l 284 0 l 89 0 m 91 1132 l 209 1325 l 383 1325 l 175 1132 l 91 1132 "},"´":{"x_min":252,"x_max":544,"ha":694,"o":"m 252 868 l 370 1061 l 544 1061 l 336 868 l 252 868 "},"Ú":{"x_min":89,"x_max":742,"ha":829,"o":"m 89 1044 l 284 1044 l 284 340 q 313 177 284 220 q 418 134 342 134 q 521 177 492 134 q 550 343 550 220 l 550 1044 l 742 1044 l 742 323 q 730 170 742 218 q 690 84 718 121 q 579 2 648 29 q 415 -25 510 -25 q 162 52 236 -25 q 89 323 89 130 l 89 1044 m 320 1132 l 438 1325 l 612 1325 l 404 1132 l 320 1132 "},"Ý":{"x_min":12,"x_max":751,"ha":764,"o":"m 286 0 l 286 442 l 12 1044 l 227 1044 l 385 651 l 541 1044 l 751 1044 l 482 442 l 482 0 l 286 0 m 287 1132 l 405 1325 l 579 1325 l 371 1132 l 287 1132 "},"Ω":{"x_min":37.046875,"x_max":1029.15625,"ha":1068,"o":"m 831 174 l 1029 174 l 1029 0 l 617 0 l 617 197 q 746 344 701 255 q 791 545 791 434 q 722 762 791 683 q 532 841 653 841 q 343 762 412 841 q 275 545 275 683 q 319 344 275 434 q 449 197 364 255 l 449 0 l 37 0 l 37 174 l 234 174 q 107 350 148 255 q 66 555 66 444 q 193 895 66 767 q 532 1023 321 1023 q 872 895 744 1023 q 1000 555 1000 767 q 958 350 1000 444 q 831 174 917 255 "},"Ö":{"x_min":68,"x_max":745,"ha":815,"o":"m 267 521 q 296 197 267 264 q 407 131 326 131 q 516 196 487 131 q 546 521 546 261 q 516 848 546 782 q 406 915 486 915 q 296 848 326 915 q 267 521 267 782 m 68 522 q 83 787 68 688 q 132 936 99 886 q 240 1038 177 1008 q 406 1069 303 1069 q 572 1038 509 1069 q 681 936 635 1008 q 729 786 714 885 q 745 522 745 687 q 729 257 745 357 q 681 107 713 158 q 572 5 635 36 q 406 -25 509 -25 q 240 5 303 -25 q 132 107 177 36 q 83 256 99 157 q 68 522 68 355 m 450 1148 l 450 1309 l 599 1309 l 599 1148 l 450 1148 m 218 1148 l 218 1309 l 367 1309 l 367 1148 l 218 1148 "},"z":{"x_min":29,"x_max":501,"ha":532,"o":"m 29 0 l 29 144 l 294 632 l 31 632 l 31 785 l 498 785 l 498 653 l 224 154 l 501 154 l 501 0 l 29 0 "},"™":{"x_min":141,"x_max":981,"ha":1157,"o":"m 545 991 l 678 991 l 764 765 l 847 991 l 981 991 l 981 620 l 889 620 l 889 898 l 785 620 l 744 620 l 637 898 l 637 620 l 545 620 l 545 991 m 141 991 l 470 991 l 470 915 l 356 915 l 356 620 l 255 620 l 255 915 l 141 915 l 141 991 "},"ã":{"x_min":62,"x_max":626,"ha":673,"o":"m 425 410 q 286 318 322 359 q 250 222 250 278 q 269 145 250 170 q 330 121 288 121 q 401 162 377 121 q 425 286 425 203 l 425 410 m 450 0 q 439 26 443 8 q 430 76 435 44 q 356 3 401 28 q 251 -21 311 -21 q 111 39 161 -21 q 62 206 62 99 q 105 360 62 303 q 279 475 149 418 q 315 492 292 481 q 422 598 422 537 q 401 655 422 635 q 341 676 380 676 q 268 649 291 676 q 245 566 245 623 l 245 551 l 69 551 q 133 743 69 683 q 341 804 198 804 q 542 748 484 804 q 600 555 600 693 l 600 112 q 606 53 600 80 q 626 0 612 26 l 450 0 m 207 876 l 148 876 q 192 994 161 955 q 269 1034 222 1034 q 290 1032 279 1034 q 310 1028 300 1031 l 385 1006 q 400 1003 392 1004 q 417 1002 409 1002 q 451 1014 438 1002 q 469 1053 463 1027 l 529 1053 q 484 934 517 976 q 402 892 451 892 q 384 893 392 892 q 367 897 376 894 l 285 920 q 274 923 280 922 q 263 925 269 925 q 227 912 241 925 q 207 876 213 899 "},"æ":{"x_min":64,"x_max":932,"ha":983,"o":"m 417 409 q 391 394 408 404 q 245 216 245 303 q 266 141 245 168 q 324 114 287 114 q 396 150 375 114 q 417 290 417 187 l 417 409 m 593 492 l 762 492 l 762 514 q 742 634 762 600 q 674 668 722 668 q 612 633 632 668 q 593 519 593 598 l 593 492 m 492 59 q 411 -1 460 18 q 291 -22 362 -22 q 120 35 177 -22 q 64 209 64 93 q 102 355 64 298 q 225 451 140 413 q 285 477 246 461 q 415 595 415 533 q 393 657 415 636 q 325 678 370 678 q 259 648 282 678 q 236 565 236 619 l 236 555 l 67 555 l 67 569 q 133 746 67 687 q 329 806 199 806 q 442 793 395 806 q 521 753 489 780 q 585 792 546 779 q 676 806 624 806 q 872 722 812 806 q 932 447 932 638 q 931 417 932 434 q 929 367 931 401 l 593 367 l 593 309 q 611 152 593 191 q 678 114 630 114 q 739 148 720 114 q 757 259 757 183 l 757 269 l 926 269 l 926 247 q 865 45 926 112 q 681 -22 804 -22 q 570 -2 616 -22 q 492 59 524 17 "},"É":{"x_min":89,"x_max":634,"ha":688,"o":"m 89 0 l 89 1044 l 625 1044 l 625 870 l 282 870 l 282 628 l 602 628 l 602 463 l 282 463 l 282 176 l 634 176 l 634 0 l 89 0 m 256 1132 l 374 1325 l 548 1325 l 340 1132 l 256 1132 "},"~":{"x_min":121,"x_max":1038,"ha":1157,"o":"m 1038 543 l 1038 393 q 904 323 967 346 q 780 301 841 301 q 718 306 749 301 q 656 321 687 311 q 607 338 639 327 q 382 389 459 389 q 261 363 324 389 q 121 282 199 338 l 121 433 q 259 505 193 481 q 383 529 325 529 q 580 490 462 529 l 583 489 q 620 476 595 485 q 783 440 726 440 q 902 464 841 440 q 1038 543 963 489 "},"³":{"x_min":36,"x_max":424,"ha":458,"o":"m 37 623 l 158 623 l 158 614 q 173 517 158 544 q 228 490 189 490 q 281 514 266 490 q 296 602 296 538 q 277 686 296 666 q 204 707 258 707 q 184 706 192 707 q 168 706 175 706 l 168 788 l 176 788 q 261 806 238 788 q 285 876 285 825 q 271 941 285 923 q 224 960 257 960 q 177 939 191 960 q 163 872 163 919 l 163 857 l 45 857 q 43 866 43 861 q 43 880 43 871 q 89 1002 43 961 q 229 1043 136 1043 q 361 1001 314 1043 q 408 881 408 959 q 387 795 408 829 q 327 751 366 762 q 400 703 376 740 q 424 602 424 666 q 374 450 424 500 q 223 401 324 401 q 82 449 128 401 q 36 597 36 497 q 36 610 36 602 q 37 623 37 618 "},"¡":{"x_min":108.921875,"x_max":295.0625,"ha":406,"o":"m 260 772 l 295 338 l 295 0 l 108 0 l 108 338 l 143 772 l 260 772 m 291 1044 l 291 857 l 113 857 l 113 1044 l 291 1044 "},"[":{"x_min":109,"x_max":388,"ha":456,"o":"m 109 -284 l 109 1044 l 388 1044 l 388 929 l 280 929 l 280 -169 l 388 -169 l 388 -284 l 109 -284 "},"%":{"x_min":61,"x_max":1010,"ha":1071,"o":"m 715 241 q 731 117 715 149 q 793 86 748 86 q 856 116 839 86 q 874 239 874 146 q 855 359 874 326 q 790 393 836 393 q 731 360 748 393 q 715 241 715 327 m 579 243 q 628 439 579 379 q 790 499 678 499 q 958 440 907 499 q 1010 244 1010 381 q 957 43 1010 106 q 790 -20 905 -20 q 628 40 677 -20 q 579 243 579 101 m 197 792 q 213 669 197 700 q 276 638 230 638 q 338 668 321 638 q 356 792 356 698 q 337 911 356 878 q 272 945 319 945 q 213 912 230 945 q 197 792 197 879 m 61 797 q 110 992 61 933 q 273 1051 160 1051 q 441 992 390 1051 q 492 798 492 934 q 439 595 492 659 q 273 532 387 532 q 110 593 160 532 q 61 797 61 654 m 244 -20 l 721 1051 l 824 1051 l 346 -20 l 244 -20 "},"P":{"x_min":89,"x_max":717,"ha":757,"o":"m 276 586 l 357 586 q 485 621 448 586 q 522 743 522 657 q 488 864 522 830 q 360 898 454 898 l 276 898 l 276 586 m 89 0 l 89 1044 l 426 1044 q 649 974 581 1044 q 717 748 717 905 q 644 517 717 593 q 423 442 572 442 l 282 442 l 282 0 l 89 0 "},"∏":{"x_min":102,"x_max":989,"ha":1093,"o":"m 102 999 l 989 999 l 989 -266 l 756 -266 l 756 803 l 335 803 l 335 -266 l 102 -266 l 102 999 "},"_":{"x_min":0,"x_max":694,"ha":694,"o":"m 0 -190 l 694 -190 l 694 -328 l 0 -328 l 0 -190 "},"ñ":{"x_min":79,"x_max":597,"ha":673,"o":"m 79 0 l 79 785 l 256 785 l 256 705 q 326 780 285 755 q 420 806 368 806 q 551 757 506 806 q 597 616 597 708 l 597 0 l 422 0 l 422 526 q 404 623 422 595 q 345 652 386 652 q 280 617 300 652 q 261 500 261 582 l 261 0 l 79 0 m 207 876 l 148 876 q 192 994 161 955 q 269 1034 222 1034 q 290 1032 279 1034 q 310 1028 300 1031 l 385 1006 q 400 1003 392 1004 q 417 1002 409 1002 q 451 1014 438 1002 q 469 1053 463 1027 l 529 1053 q 484 934 517 976 q 402 892 451 892 q 384 893 392 892 q 367 897 376 894 l 285 920 q 274 923 280 922 q 263 925 269 925 q 227 912 241 925 q 207 876 213 899 "},"‚":{"x_min":82,"x_max":250,"ha":347,"o":"m 82 -186 l 82 -119 q 145 -85 122 -114 q 168 -10 168 -57 l 168 0 l 82 0 l 82 178 l 250 178 l 250 -9 q 204 -127 250 -80 q 82 -186 159 -175 "},"Æ":{"x_min":-31,"x_max":1010,"ha":1063,"o":"m 315 415 l 486 415 l 486 870 l 460 870 l 315 415 m -31 0 l 365 1044 l 1007 1044 l 1007 870 l 672 870 l 672 628 l 984 628 l 984 465 l 672 465 l 672 175 l 1010 175 l 1010 0 l 486 0 l 486 266 l 265 266 l 176 0 l -31 0 "},"₣":{"x_min":89,"x_max":1117,"ha":1149,"o":"m 89 0 l 89 1044 l 635 1044 l 635 873 l 284 873 l 284 626 l 615 626 l 615 459 l 284 459 l 284 0 l 89 0 m 760 0 l 760 785 l 933 785 l 933 657 q 1013 770 970 736 q 1117 805 1055 804 l 1117 584 q 1096 586 1106 585 q 1071 587 1086 587 q 978 552 1012 587 q 944 459 944 517 l 944 0 l 760 0 "},"ğ":{"x_min":57,"x_max":596,"ha":675,"o":"m 596 62 q 586 -89 596 -41 q 552 -171 576 -137 q 461 -240 522 -216 q 315 -264 400 -264 q 137 -218 198 -264 q 74 -86 75 -172 l 254 -86 q 273 -122 256 -109 q 320 -135 290 -135 q 392 -103 372 -135 q 413 12 413 -71 l 413 66 q 353 0 390 22 q 265 -21 316 -21 q 103 66 149 -21 q 57 396 57 154 q 103 715 57 625 q 263 806 150 806 q 361 780 321 806 q 423 702 401 754 l 423 785 l 596 785 l 596 62 m 324 656 q 258 608 276 656 q 241 379 241 561 q 259 175 241 219 q 324 132 277 132 q 398 183 378 132 q 419 442 419 234 q 398 614 419 573 q 324 656 378 656 m 152 1061 l 229 1061 q 262 997 236 1017 q 338 978 288 978 q 414 998 388 978 q 447 1061 441 1018 l 524 1061 q 469 914 514 961 q 338 868 424 868 q 206 914 251 868 q 152 1061 160 961 "},"ª":{"x_min":47,"x_max":469,"ha":505,"o":"m 319 783 q 213 718 241 747 q 186 652 186 690 q 201 598 186 615 q 248 581 216 581 q 300 610 282 581 q 319 696 319 639 l 319 783 m 336 497 q 329 515 333 502 q 323 550 326 528 q 267 499 301 516 q 188 483 234 483 q 84 524 121 483 q 47 640 47 566 q 79 749 47 709 q 208 829 112 789 q 235 840 218 833 q 316 915 316 872 q 301 955 316 941 q 256 970 285 970 q 201 951 219 970 q 184 893 184 932 l 184 882 l 52 882 q 100 1016 52 974 q 256 1059 148 1059 q 406 1020 363 1059 q 450 885 450 981 l 450 575 q 454 534 450 553 q 469 496 458 515 l 336 497 "},"Œ":{"x_min":71,"x_max":1081,"ha":1131,"o":"m 536 279 l 536 780 q 501 877 536 840 q 408 914 466 914 q 297 831 329 914 q 266 511 266 749 q 298 210 266 290 q 414 131 331 131 q 502 171 468 131 q 536 279 536 212 m 548 76 q 479 0 524 24 q 362 -24 434 -24 q 138 97 205 -24 q 71 516 71 219 q 82 766 71 672 q 117 910 93 861 q 221 1030 157 991 q 376 1069 285 1069 q 481 1044 439 1069 q 548 969 523 1020 l 548 1044 l 1071 1044 l 1071 870 l 723 870 l 723 628 l 1048 628 l 1048 465 l 723 465 l 723 176 l 1081 176 l 1081 0 l 548 0 l 548 76 "},"T":{"x_min":14,"x_max":657,"ha":669,"o":"m 238 0 l 238 872 l 14 872 l 14 1044 l 657 1044 l 657 872 l 433 872 l 433 0 l 238 0 "},"š":{"x_min":51,"x_max":560,"ha":611,"o":"m 52 261 l 216 261 l 216 238 q 236 142 216 170 q 305 114 257 114 q 365 134 343 114 q 387 190 387 154 q 299 293 387 235 q 264 316 276 308 l 256 322 q 56 591 56 459 q 120 751 56 696 q 309 806 185 806 q 488 745 428 806 q 548 561 548 684 l 548 545 l 388 545 l 388 561 q 366 644 388 618 q 297 671 344 671 q 243 652 263 671 q 223 603 223 633 q 241 551 223 574 q 321 486 259 528 q 362 458 335 477 q 560 197 560 328 q 493 36 560 93 q 303 -21 426 -21 q 112 40 173 -21 q 51 230 51 101 q 51 245 51 235 q 52 261 52 255 m 119 1061 l 203 1061 l 306 959 l 408 1061 l 493 1061 l 375 868 l 236 868 l 119 1061 "},"Þ":{"x_min":89,"x_max":717,"ha":757,"o":"m 276 710 l 276 399 l 357 399 q 485 433 449 399 q 522 554 522 468 q 488 676 522 642 q 360 710 454 710 l 276 710 m 89 1044 l 282 1044 l 282 857 l 426 857 q 648 788 579 857 q 717 566 717 719 q 645 331 717 407 q 423 255 573 255 l 282 255 l 282 0 l 89 0 l 89 1044 "},"j":{"x_min":26,"x_max":270,"ha":349,"o":"m 90 882 l 90 1044 l 270 1044 l 270 882 l 90 882 m 26 -260 l 26 -112 q 80 -99 68 -112 q 92 -29 92 -87 l 92 785 l 270 785 l 270 -31 q 233 -225 270 -185 q 85 -265 196 -265 q 57 -263 72 -265 q 26 -260 42 -262 "},"1":{"x_min":62,"x_max":476,"ha":694,"o":"m 293 0 l 293 736 l 62 736 l 62 859 q 262 911 190 863 q 347 1051 334 960 l 476 1051 l 476 0 l 293 0 "},"›":{"x_min":93,"x_max":305,"ha":399,"o":"m 93 131 l 93 281 l 223 392 l 93 504 l 93 655 l 305 462 l 305 322 l 93 131 "},"<":{"x_min":179,"x_max":978,"ha":1157,"o":"m 978 809 l 978 660 l 372 413 l 978 166 l 978 18 l 179 346 l 179 481 l 978 809 "},"t":{"x_min":18,"x_max":346,"ha":378,"o":"m 271 290 l 271 237 q 282 156 271 173 q 326 140 294 140 q 338 140 333 140 q 346 140 342 140 l 346 0 q 284 -5 306 -4 q 249 -7 262 -7 q 123 29 157 -7 q 89 178 89 65 l 89 650 l 18 650 l 18 785 l 89 785 l 89 999 l 271 999 l 271 785 l 346 785 l 346 650 l 271 650 l 271 290 "},"¬":{"x_min":172,"x_max":984,"ha":1157,"o":"m 172 586 l 984 586 l 984 246 l 849 246 l 849 453 l 172 453 l 172 586 "},"ù":{"x_min":77,"x_max":595,"ha":672,"o":"m 595 785 l 595 0 l 417 0 l 417 78 q 347 4 389 29 q 252 -21 305 -21 q 121 27 166 -21 q 77 168 77 76 l 77 785 l 252 785 l 252 272 q 269 164 252 194 q 329 135 287 135 q 394 167 375 135 q 413 283 413 200 l 413 785 l 595 785 m 432 868 l 347 868 l 140 1061 l 313 1061 l 432 868 "},"ï":{"x_min":-22,"x_max":359,"ha":336,"o":"m 78 0 l 78 785 l 258 785 l 258 0 l 78 0 m 210 884 l 210 1045 l 359 1045 l 359 884 l 210 884 m -22 884 l -22 1045 l 127 1045 l 127 884 l -22 884 "},"Ò":{"x_min":68,"x_max":745,"ha":815,"o":"m 267 521 q 296 197 267 264 q 407 131 326 131 q 516 196 487 131 q 546 521 546 261 q 516 848 546 782 q 406 915 486 915 q 296 848 326 915 q 267 521 267 782 m 68 522 q 83 787 68 688 q 132 936 99 886 q 240 1038 177 1008 q 406 1069 303 1069 q 572 1038 509 1069 q 681 936 635 1008 q 729 786 714 885 q 745 522 745 687 q 729 257 745 357 q 681 107 713 158 q 572 5 635 36 q 406 -25 509 -25 q 240 5 303 -25 q 132 107 177 36 q 83 256 99 157 q 68 522 68 355 m 504 1132 l 419 1132 l 212 1325 l 385 1325 l 504 1132 "},"&":{"x_min":82,"x_max":846,"ha":914,"o":"m 422 715 q 478 776 460 745 q 497 841 497 807 q 480 898 497 878 q 430 918 463 918 q 378 899 396 918 q 361 845 361 880 q 365 825 361 837 q 376 799 369 813 l 422 715 m 530 193 l 359 475 q 288 400 312 444 q 264 306 264 356 q 304 186 264 235 q 402 137 345 137 q 465 149 436 137 q 530 193 495 162 m 639 0 l 604 66 q 506 2 561 23 q 379 -18 451 -18 q 161 66 241 -18 q 82 294 82 150 q 126 459 82 387 q 280 614 170 531 q 217 735 236 684 q 199 833 199 785 q 260 986 199 928 q 422 1044 321 1044 q 591 992 532 1044 q 650 845 650 940 q 612 699 650 765 q 501 584 574 633 l 626 369 q 645 444 639 403 q 652 534 652 484 l 652 551 l 811 551 q 787 357 809 442 q 722 210 765 272 l 846 0 l 639 0 "},"":{"x_min":-31,"x_max":648,"ha":694,"o":"m 454 311 l 648 311 l 648 290 q 578 53 648 132 q 367 -25 508 -25 q 146 73 219 -25 q 73 376 74 172 l -14 376 l 29 473 l 73 473 l 73 571 l -31 571 l 12 668 l 73 668 q 146 970 74 871 q 367 1069 219 1069 q 578 990 509 1069 q 648 750 647 911 l 454 750 l 454 758 q 431 885 454 845 q 359 926 408 926 q 288 871 309 926 q 268 668 268 816 l 527 668 l 484 571 l 268 571 l 268 473 l 441 473 l 398 376 l 268 376 q 290 169 269 221 q 364 118 311 118 q 432 160 410 118 q 454 292 454 202 l 454 311 "},"˝":{"x_min":192,"x_max":657,"ha":694,"o":"m 382 868 l 492 1061 l 657 1061 l 457 868 l 382 868 m 192 868 l 279 1061 l 436 1061 l 257 868 l 192 868 "},"I":{"x_min":89,"x_max":284,"ha":372,"o":"m 89 0 l 89 1044 l 284 1044 l 284 0 l 89 0 "},"G":{"x_min":68,"x_max":736,"ha":818,"o":"m 604 0 l 590 115 q 508 7 560 40 q 365 -25 456 -25 q 134 99 201 -25 q 68 554 68 223 q 83 801 68 708 q 133 945 99 895 q 241 1038 174 1008 q 408 1068 308 1068 q 656 988 576 1068 q 736 742 736 909 l 736 716 l 554 716 l 554 726 q 519 867 554 819 q 415 915 484 915 q 299 849 330 915 q 268 505 268 784 q 297 209 268 284 q 405 135 327 135 q 516 187 483 135 q 549 367 549 240 l 549 403 l 414 403 l 414 570 l 736 570 l 736 0 l 604 0 "},"`":{"x_min":151,"x_max":443,"ha":694,"o":"m 443 868 l 358 868 l 151 1061 l 324 1061 l 443 868 "},"·":{"x_min":65,"x_max":282,"ha":347,"o":"m 65 514 q 96 591 65 559 q 173 623 128 623 q 249 590 217 623 q 282 514 282 558 q 250 438 282 470 q 173 407 218 407 q 96 437 128 407 q 65 514 65 468 "},"¿":{"x_min":72,"x_max":608,"ha":682,"o":"m 437 281 l 608 281 l 608 254 q 538 47 608 119 q 340 -24 469 -24 q 143 46 214 -24 q 72 241 72 117 q 82 328 72 288 q 114 401 93 368 q 191 502 139 442 q 259 586 243 562 q 295 655 284 618 q 307 740 307 693 q 306 752 307 744 q 305 765 305 760 l 469 765 q 470 747 470 756 q 471 718 471 737 q 452 591 471 645 q 388 478 434 537 q 353 435 376 462 q 263 231 263 330 q 284 148 263 177 q 347 120 306 120 q 414 153 392 120 q 437 255 437 187 l 437 281 m 297 864 l 297 1044 l 471 1044 l 471 864 l 297 864 "},"ý":{"x_min":14,"x_max":603,"ha":616,"o":"m 120 -256 l 120 -121 q 131 -121 125 -121 q 149 -122 137 -122 q 205 -109 187 -122 q 222 -69 222 -96 q 220 -48 222 -60 q 215 -24 218 -35 l 14 785 l 206 785 l 314 218 l 419 785 l 603 785 l 399 -73 q 326 -223 372 -185 q 183 -262 281 -262 q 152 -260 168 -262 q 120 -256 136 -259 m 213 868 l 331 1061 l 505 1061 l 297 868 l 213 868 "},"º":{"x_min":41,"x_max":457,"ha":498,"o":"m 181 776 l 181 763 q 194 606 181 633 q 248 579 208 579 q 302 605 288 579 q 317 744 317 631 l 317 766 l 317 798 q 302 933 317 906 q 248 961 288 961 q 195 936 209 961 q 181 813 181 911 l 181 776 m 41 769 q 87 998 41 936 q 248 1060 133 1060 q 410 997 364 1060 q 457 769 457 935 q 411 543 457 604 q 248 482 365 482 q 86 542 132 482 q 41 769 41 603 "},"∞":{"x_min":139,"x_max":1019,"ha":1157,"o":"m 638 380 q 710 303 669 329 q 805 278 752 278 q 908 315 868 278 q 948 413 948 353 q 911 510 948 472 q 820 549 874 549 q 726 509 769 549 q 638 380 683 470 m 519 447 q 447 523 489 498 q 352 549 406 549 q 249 510 289 549 q 210 412 210 472 q 246 316 210 354 q 337 278 283 278 q 431 317 388 278 q 519 447 474 356 m 581 309 q 482 177 535 220 q 364 135 429 135 q 204 214 269 135 q 139 413 139 294 q 196 615 139 538 q 348 692 254 692 q 463 651 410 692 q 574 517 516 610 q 675 649 621 606 q 793 693 729 693 q 953 612 888 693 q 1019 413 1019 532 q 960 213 1019 289 q 809 136 902 136 q 693 176 746 136 q 581 309 641 215 "},";":{"x_min":103,"x_max":277,"ha":379,"o":"m 103 -204 l 103 -133 q 170 -96 145 -128 q 196 -10 196 -63 l 196 0 l 103 0 l 103 187 l 277 187 l 277 -12 q 226 -143 277 -87 q 103 -204 175 -199 m 103 584 l 103 772 l 277 772 l 277 584 l 103 584 "},"6":{"x_min":61,"x_max":635,"ha":694,"o":"m 252 343 q 273 176 252 222 q 348 131 295 131 q 422 171 402 131 q 443 340 443 211 q 422 510 443 470 q 347 550 402 550 q 273 504 294 550 q 252 343 252 459 m 252 634 q 311 687 274 669 q 399 705 348 705 q 577 624 519 705 q 635 374 635 543 q 568 69 635 159 q 345 -20 502 -20 q 206 7 261 -20 q 113 96 151 35 q 73 236 85 143 q 61 511 61 329 q 72 786 61 692 q 111 926 84 880 q 208 1021 148 991 q 360 1051 268 1051 q 548 993 482 1051 q 614 830 614 935 l 614 815 l 434 815 l 434 825 q 413 889 434 868 q 351 911 393 911 q 273 862 296 911 q 250 694 250 814 q 251 665 250 684 q 252 634 252 645 "},"n":{"x_min":79,"x_max":597,"ha":673,"o":"m 79 0 l 79 785 l 256 785 l 256 705 q 326 780 285 755 q 420 806 368 806 q 551 757 506 806 q 597 616 597 708 l 597 0 l 422 0 l 422 526 q 404 623 422 595 q 345 652 386 652 q 280 617 300 652 q 261 500 261 582 l 261 0 l 79 0 "},"¤":{"x_min":-31,"x_max":648,"ha":694,"o":"m 454 311 l 648 311 l 648 290 q 578 53 648 132 q 367 -25 508 -25 q 146 73 219 -25 q 73 376 74 172 l -14 376 l 29 473 l 73 473 l 73 571 l -31 571 l 12 668 l 73 668 q 146 970 74 871 q 367 1069 219 1069 q 578 990 509 1069 q 648 750 647 911 l 454 750 l 454 758 q 431 885 454 845 q 359 926 408 926 q 288 871 309 926 q 268 668 268 816 l 527 668 l 484 571 l 268 571 l 268 473 l 441 473 l 398 376 l 268 376 q 290 169 269 221 q 364 118 311 118 q 432 160 410 118 q 454 292 454 202 l 454 311 "},"∂":{"x_min":52,"x_max":694,"ha":742,"o":"m 517 448 q 537 577 530 516 q 544 682 544 637 q 526 789 544 750 q 479 829 509 829 q 379 779 449 829 q 270 729 310 729 q 222 749 242 729 q 202 799 202 770 q 261 879 202 842 q 404 916 320 916 q 614 806 535 916 q 694 512 694 696 q 587 132 694 282 q 318 -17 481 -17 q 127 60 202 -17 q 52 258 52 138 q 130 481 52 392 q 325 571 209 571 q 441 541 395 571 q 517 448 487 511 m 476 351 q 449 471 476 429 q 374 514 423 514 q 260 423 305 514 q 215 191 215 332 q 241 71 215 112 q 317 30 267 30 q 431 120 386 30 q 476 351 476 211 "},"p":{"x_min":79,"x_max":617,"ha":675,"o":"m 255 425 q 275 183 255 234 q 349 132 295 132 q 415 176 397 132 q 433 394 433 220 q 415 609 433 563 q 349 656 397 656 q 275 613 295 656 q 255 425 255 571 m 79 -264 l 79 785 l 251 785 l 251 702 q 313 780 273 754 q 410 806 353 806 q 570 715 524 806 q 617 396 617 625 q 571 68 617 158 q 414 -21 526 -21 q 321 0 359 -21 q 261 66 284 22 l 261 -264 l 79 -264 "},"‡":{"x_min":60,"x_max":635,"ha":694,"o":"m 259 -116 l 259 149 l 60 149 l 60 304 l 259 304 l 259 625 l 60 625 l 60 780 l 259 780 l 259 1044 l 435 1044 l 435 780 l 635 780 l 635 625 l 435 625 l 435 304 l 635 304 l 635 149 l 435 149 l 435 -116 l 259 -116 "},"√":{"x_min":49,"x_max":914,"ha":913,"o":"m 773 1149 l 914 1149 l 914 1062 l 844 1062 l 442 -28 l 375 -28 l 164 554 l 69 519 l 49 596 l 273 675 l 433 226 l 773 1149 "},"S":{"x_min":66,"x_max":691,"ha":761,"o":"m 68 367 l 263 367 l 263 299 q 287 168 263 203 q 370 134 311 134 q 463 165 431 134 q 496 257 496 196 q 473 337 496 303 q 376 423 451 370 l 277 494 q 113 641 148 583 q 79 788 79 700 q 156 994 79 919 q 371 1069 234 1069 q 593 989 516 1069 q 671 761 671 910 q 670 738 671 746 q 669 724 670 730 l 485 724 l 485 751 q 457 873 485 836 q 366 910 429 910 q 292 882 319 910 q 266 806 266 855 q 385 660 266 740 l 387 659 l 494 586 q 650 443 609 510 q 691 271 691 376 q 609 52 691 129 q 376 -25 528 -25 q 142 56 219 -25 q 66 304 66 137 q 68 362 66 322 l 68 367 "},"/":{"x_min":-41,"x_max":453,"ha":427,"o":"m 61 -129 l -41 -129 l 349 1069 l 453 1069 l 61 -129 "},"y":{"x_min":14,"x_max":603,"ha":616,"o":"m 120 -256 l 120 -121 q 131 -121 125 -121 q 149 -122 137 -122 q 205 -109 187 -122 q 222 -69 222 -96 q 220 -48 222 -60 q 215 -24 218 -35 l 14 785 l 206 785 l 314 218 l 419 785 l 603 785 l 399 -73 q 326 -223 372 -185 q 183 -262 281 -262 q 152 -260 168 -262 q 120 -256 136 -259 "},"≈":{"x_min":121,"x_max":1038,"ha":1157,"o":"m 1038 404 l 1038 256 q 903 183 966 206 q 780 161 841 161 q 586 206 716 161 q 382 252 456 252 q 263 226 325 252 q 121 144 202 201 l 121 292 q 261 366 196 342 q 383 390 325 390 q 597 345 467 390 q 783 301 727 301 q 901 325 841 301 q 1038 404 961 349 m 1038 684 l 1038 535 q 904 464 966 486 q 782 442 843 442 q 588 486 718 442 q 382 531 458 531 q 266 507 326 531 q 121 424 207 483 l 121 572 q 259 645 193 621 q 383 670 325 670 q 598 625 468 670 q 783 581 728 581 q 899 604 840 581 q 1038 684 958 628 "},"g":{"x_min":57,"x_max":596,"ha":675,"o":"m 596 62 q 586 -89 596 -41 q 552 -171 576 -137 q 461 -240 522 -216 q 315 -264 400 -264 q 137 -218 198 -264 q 74 -86 75 -172 l 254 -86 q 273 -122 256 -109 q 320 -135 290 -135 q 392 -103 372 -135 q 413 12 413 -71 l 413 66 q 353 0 390 22 q 265 -21 316 -21 q 103 66 149 -21 q 57 396 57 154 q 103 715 57 625 q 263 806 150 806 q 361 780 321 806 q 423 702 401 754 l 423 785 l 596 785 l 596 62 m 324 656 q 258 608 276 656 q 241 379 241 561 q 259 175 241 219 q 324 132 277 132 q 398 183 378 132 q 419 442 419 234 q 398 614 419 573 q 324 656 378 656 "},"²":{"x_min":39,"x_max":423,"ha":458,"o":"m 39 412 l 39 431 q 71 571 39 505 q 171 699 104 638 q 217 740 181 710 q 265 789 252 771 q 286 829 279 808 q 293 877 293 851 q 276 937 293 917 q 228 957 260 957 q 178 932 194 957 q 163 856 163 908 l 163 833 l 43 833 q 42 843 43 836 q 41 854 41 849 q 87 997 41 951 q 232 1043 133 1043 q 373 1001 324 1043 q 423 883 423 960 q 413 816 423 846 q 386 757 404 785 q 318 685 371 735 q 282 652 294 664 q 199 563 222 592 q 169 512 177 535 l 414 512 l 414 412 l 39 412 "},"ë":{"x_min":57,"x_max":602,"ha":661,"o":"m 242 492 l 420 492 l 420 525 q 400 636 420 605 q 330 667 380 667 q 262 635 282 667 q 241 525 241 603 q 242 514 241 525 q 242 492 242 502 m 426 269 l 596 269 q 597 253 596 263 q 597 238 597 243 q 533 41 597 104 q 330 -21 469 -21 q 207 -2 257 -21 q 126 54 158 15 q 72 168 88 99 q 57 417 57 238 q 70 622 57 561 q 116 723 84 684 q 205 785 150 764 q 335 806 259 806 q 460 783 407 806 q 547 717 513 761 q 589 618 576 677 q 602 426 602 559 l 602 367 l 245 367 q 243 348 243 358 q 242 316 242 338 q 263 159 242 204 q 334 115 284 115 q 404 151 382 115 q 426 269 426 187 m 372 884 l 372 1045 l 521 1045 l 521 884 l 372 884 m 140 884 l 140 1045 l 289 1045 l 289 884 l 140 884 "},"–":{"x_min":0,"x_max":694,"ha":694,"o":"m 0 338 l 0 447 l 694 447 l 694 338 l 0 338 "},"ƒ":{"x_min":-7,"x_max":648,"ha":694,"o":"m -7 -245 l 14 -90 q 45 -99 29 -96 q 73 -103 60 -102 q 130 -75 109 -103 q 161 15 150 -48 l 251 555 l 92 555 l 92 689 l 267 689 q 356 965 292 880 q 537 1051 420 1051 q 592 1044 565 1051 q 648 1025 619 1038 l 620 886 q 592 900 608 895 q 560 905 577 905 q 487 859 511 905 q 448 689 462 813 l 601 689 l 601 555 l 433 555 l 356 83 q 268 -182 326 -101 q 110 -264 211 -264 q 51 -259 80 -264 q -7 -245 22 -255 "},"J":{"x_min":17,"x_max":518,"ha":612,"o":"m 17 330 l 195 330 l 195 206 q 211 145 195 165 q 262 125 228 125 q 313 148 299 125 q 327 256 327 171 l 327 304 l 327 1044 l 518 1044 l 518 309 q 513 161 518 200 q 498 98 509 122 q 410 5 469 35 q 261 -25 352 -25 q 78 37 139 -25 q 17 223 17 100 l 17 330 "},"Ã":{"x_min":12,"x_max":746,"ha":760,"o":"m 291 419 l 457 419 l 373 856 l 291 419 m 12 0 l 247 1044 l 508 1044 l 746 0 l 536 0 l 484 262 l 260 262 l 210 0 l 12 0 m 249 1140 l 190 1140 q 234 1258 203 1219 q 311 1298 264 1298 q 332 1296 321 1298 q 352 1292 342 1295 l 427 1270 q 442 1267 434 1268 q 459 1266 451 1266 q 493 1278 480 1266 q 511 1317 505 1291 l 571 1317 q 526 1198 559 1240 q 444 1156 493 1156 q 426 1157 434 1156 q 409 1161 418 1158 l 327 1184 q 316 1187 322 1186 q 305 1189 311 1189 q 269 1176 283 1189 q 249 1140 255 1163 "},"©":{"x_min":75,"x_max":1083,"ha":1157,"o":"m 821 608 l 693 608 q 657 681 688 655 q 577 708 627 708 q 480 652 515 708 q 445 498 445 597 q 480 346 445 398 q 582 294 515 294 q 662 322 632 294 q 698 403 691 351 l 829 403 q 755 252 823 309 q 578 196 686 196 q 379 275 452 196 q 307 494 307 355 q 381 716 307 633 q 580 800 455 800 q 750 747 683 800 q 821 608 816 694 m 579 918 q 416 886 492 918 q 282 796 341 855 q 189 658 221 735 q 158 497 158 581 q 189 337 158 413 q 282 201 221 261 q 418 109 341 141 q 579 78 494 78 q 740 109 663 78 q 878 202 816 141 q 969 335 938 260 q 1000 497 1000 411 q 968 659 1000 582 q 877 794 936 735 q 741 886 816 855 q 579 918 665 918 m 577 1003 q 772 965 680 1003 q 937 854 864 927 q 1045 691 1008 783 q 1083 496 1083 599 q 1046 304 1083 393 q 937 144 1009 214 q 768 32 861 71 q 577 -7 676 -7 q 387 31 477 -7 q 223 142 296 69 q 112 306 150 214 q 75 496 75 397 q 112 689 75 598 q 223 855 150 781 q 385 965 294 927 q 577 1003 475 1003 "},"˘":{"x_min":161,"x_max":533,"ha":694,"o":"m 161 1061 l 238 1061 q 271 997 245 1017 q 347 978 297 978 q 423 998 397 978 q 456 1061 450 1018 l 533 1061 q 478 914 523 961 q 347 868 433 868 q 215 914 260 868 q 161 1061 169 961 "},"≥":{"x_min":175,"x_max":983,"ha":1157,"o":"m 175 133 l 983 133 l 983 -1 l 175 -1 l 175 133 m 176 842 l 981 580 l 981 463 l 176 202 l 176 343 l 740 521 l 176 700 l 176 842 "},"D":{"x_min":89,"x_max":748,"ha":817,"o":"m 280 154 l 366 154 q 458 163 432 154 q 500 196 485 172 q 539 307 527 236 q 551 534 551 378 q 537 754 551 685 q 491 859 523 823 q 447 883 474 876 q 363 891 420 891 l 280 891 l 280 154 m 89 0 l 89 1044 l 402 1044 q 554 1027 497 1044 q 647 974 611 1011 q 725 839 702 921 q 748 585 748 757 q 732 271 748 363 q 679 115 716 179 q 579 25 643 50 q 357 0 515 0 l 89 0 "},"ÿ":{"x_min":14,"x_max":603,"ha":616,"o":"m 120 -256 l 120 -121 q 131 -121 125 -121 q 149 -122 137 -122 q 205 -109 187 -122 q 222 -69 222 -96 q 220 -48 222 -60 q 215 -24 218 -35 l 14 785 l 206 785 l 314 218 l 419 785 l 603 785 l 399 -73 q 326 -223 372 -185 q 183 -262 281 -262 q 152 -260 168 -262 q 120 -256 136 -259 m 350 884 l 350 1045 l 499 1045 l 499 884 l 350 884 m 118 884 l 118 1045 l 267 1045 l 267 884 l 118 884 "},"ł":{"x_min":0,"x_max":363,"ha":363,"o":"m 92 0 l 92 412 l 0 347 l 0 474 l 92 541 l 92 1044 l 271 1044 l 271 627 l 363 690 l 363 563 l 271 499 l 271 0 l 92 0 "},"Ł":{"x_min":-5,"x_max":644,"ha":688,"o":"m 98 0 l 98 394 l -5 322 l -5 476 l 98 548 l 98 1044 l 293 1044 l 293 630 l 462 748 l 462 594 l 293 476 l 293 178 l 644 178 l 644 0 l 98 0 "},"$":{"x_min":50,"x_max":641,"ha":694,"o":"m 308 660 l 307 901 q 247 868 268 897 q 226 789 226 840 q 246 719 226 752 q 308 660 266 687 m 302 -136 l 302 -1 q 113 82 176 6 q 50 301 50 158 l 50 328 l 214 328 q 213 311 214 322 q 213 296 213 300 q 236 185 213 224 q 308 138 259 146 l 308 445 q 117 593 174 519 q 61 769 61 668 q 124 956 61 887 q 302 1032 188 1026 l 302 1125 l 379 1125 l 379 1030 q 556 965 495 1029 q 617 780 617 901 l 617 761 l 456 761 l 456 775 q 434 865 456 832 q 373 899 412 897 l 373 622 q 584 470 527 542 q 641 289 641 397 q 573 81 641 155 q 379 -1 506 6 l 379 -136 l 302 -136 m 373 138 q 442 177 418 146 q 466 261 466 209 q 445 346 466 313 q 373 412 425 379 l 373 138 "},"w":{"x_min":18,"x_max":890,"ha":909,"o":"m 185 0 l 18 785 l 207 785 l 291 204 l 380 785 l 529 785 l 634 196 l 709 785 l 890 785 l 739 0 l 544 0 l 455 466 l 384 0 l 185 0 "},"\\":{"x_min":-41,"x_max":453,"ha":427,"o":"m 349 -129 l -41 1069 l 61 1069 l 453 -129 l 349 -129 "},"∫":{"x_min":33,"x_max":771,"ha":804,"o":"m 231 -171 q 313 262 301 -171 q 318 405 315 354 q 401 902 328 750 q 623 1054 473 1054 q 730 1020 690 1054 q 771 933 771 987 q 745 867 771 892 q 677 843 719 843 q 625 859 646 843 q 597 905 604 875 q 592 942 594 919 q 572 974 590 973 q 492 544 505 974 q 488 423 489 465 q 466 122 480 223 q 426 -47 453 21 q 326 -200 388 -147 q 180 -253 263 -253 q 74 -219 115 -253 q 33 -133 33 -186 q 59 -66 33 -91 q 130 -41 85 -41 q 188 -62 164 -41 q 212 -111 212 -83 q 216 -160 212 -150 q 231 -171 220 -171 "},"Ì":{"x_min":-10,"x_max":284,"ha":372,"o":"m 89 0 l 89 1044 l 284 1044 l 284 0 l 89 0 m 282 1132 l 197 1132 l -10 1325 l 163 1325 l 282 1132 "},"Ç":{"x_min":68,"x_max":694.359375,"ha":761,"o":"m 504 372 l 693 372 q 693 352 693 365 q 694 331 694 338 q 618 62 694 150 q 384 -25 541 -25 q 256 -5 310 -25 q 164 54 202 13 q 89 203 111 108 q 68 534 68 298 q 80 790 68 695 q 120 932 93 885 q 225 1036 162 1004 q 384 1069 287 1069 q 615 986 543 1069 q 688 720 687 903 l 499 720 l 499 745 q 471 872 499 830 q 388 914 444 914 q 293 856 318 914 q 268 537 268 798 q 292 194 268 255 q 387 134 317 134 q 478 181 452 134 q 504 357 504 229 l 504 372 m 217 -216 q 312 -231 281 -227 q 361 -235 343 -235 q 405 -223 391 -235 q 420 -186 420 -211 q 403 -155 420 -165 q 349 -145 386 -145 l 334 -145 l 334 0 l 412 0 l 412 -57 q 513 -96 478 -63 q 548 -187 548 -130 q 502 -292 548 -255 q 375 -329 457 -329 q 309 -324 347 -329 q 217 -310 271 -320 l 217 -216 "},"C":{"x_min":68,"x_max":694.359375,"ha":761,"o":"m 504 372 l 693 372 q 693 352 693 365 q 694 331 694 338 q 618 62 694 150 q 384 -25 541 -25 q 256 -5 310 -25 q 164 54 202 13 q 89 203 111 108 q 68 534 68 298 q 80 790 68 695 q 120 932 93 885 q 225 1036 162 1004 q 384 1069 287 1069 q 615 986 543 1069 q 688 720 687 903 l 499 720 l 499 745 q 471 872 499 830 q 388 914 444 914 q 293 856 318 914 q 268 537 268 798 q 292 194 268 255 q 387 134 317 134 q 478 181 452 134 q 504 357 504 229 l 504 372 "},"!":{"x_min":108.921875,"x_max":296.421875,"ha":406,"o":"m 143 273 l 108 706 l 108 1044 l 296 1044 l 296 706 l 260 273 l 143 273 m 113 0 l 113 189 l 291 189 l 291 0 l 113 0 "},"ç":{"x_min":56,"x_max":575,"ha":631,"o":"m 574 308 q 574 290 574 299 q 575 263 575 281 q 513 48 575 118 q 320 -21 451 -21 q 114 66 173 -21 q 56 392 56 154 q 114 717 56 629 q 321 806 173 806 q 512 741 450 806 q 574 541 574 677 l 574 514 l 400 514 l 400 531 q 381 634 400 603 q 322 666 363 666 q 261 635 280 666 q 243 533 243 604 l 243 262 q 260 149 243 181 q 320 118 278 118 q 385 154 367 118 q 403 291 403 191 l 403 308 l 574 308 m 152 -216 q 247 -231 216 -227 q 296 -235 278 -235 q 340 -223 326 -235 q 355 -186 355 -211 q 338 -155 355 -165 q 284 -145 321 -145 l 269 -145 l 269 0 l 347 0 l 347 -57 q 448 -96 413 -63 q 483 -187 483 -130 q 437 -292 483 -255 q 310 -329 392 -329 q 244 -324 282 -329 q 152 -310 206 -320 l 152 -216 "},"È":{"x_min":89,"x_max":634,"ha":688,"o":"m 89 0 l 89 1044 l 625 1044 l 625 870 l 282 870 l 282 628 l 602 628 l 602 463 l 282 463 l 282 176 l 634 176 l 634 0 l 89 0 m 447 1132 l 362 1132 l 155 1325 l 328 1325 l 447 1132 "},"X":{"x_min":12,"x_max":748,"ha":761,"o":"m 12 0 l 267 532 l 25 1044 l 243 1044 l 382 715 l 524 1044 l 741 1044 l 489 532 l 748 0 l 528 0 l 377 348 l 223 0 l 12 0 "},"ô":{"x_min":56,"x_max":609,"ha":664,"o":"m 242 400 l 242 382 q 260 158 242 199 q 330 118 278 118 q 404 156 385 118 q 423 355 423 194 l 423 387 l 423 432 q 403 626 423 586 q 332 666 384 666 q 261 629 280 666 q 242 454 242 593 l 242 400 m 56 392 q 117 717 56 629 q 332 806 178 806 q 547 717 486 806 q 609 392 609 629 q 547 66 609 154 q 332 -21 486 -21 q 117 66 178 -21 q 56 392 56 154 m 144 868 l 261 1061 l 400 1061 l 518 868 l 433 868 l 331 969 l 228 868 l 144 868 "},"đ":{"x_min":57,"x_max":704,"ha":675,"o":"m 241 404 q 258 175 241 222 q 324 129 276 129 q 399 170 379 129 q 419 341 419 211 q 399 601 419 549 q 324 653 379 653 q 259 607 277 653 q 241 404 241 562 m 424 82 q 361 5 401 31 q 263 -21 321 -21 q 103 69 149 -21 q 57 388 57 159 q 102 716 57 626 q 259 806 147 806 q 352 784 314 806 q 414 718 390 763 l 414 864 l 258 864 l 258 961 l 414 961 l 414 1044 l 596 1044 l 596 961 l 704 961 l 704 864 l 596 864 l 596 0 l 424 0 l 424 82 "},"}":{"x_min":97,"x_max":589,"ha":694,"o":"m 97 1002 l 143 1002 q 263 993 217 1002 q 339 968 308 985 q 394 905 378 946 q 410 771 410 865 l 410 600 q 444 468 410 507 q 561 429 479 429 q 574 430 565 429 q 589 431 584 431 l 589 289 l 563 289 q 444 251 479 289 q 410 119 410 213 l 410 -50 q 394 -187 410 -147 q 339 -248 378 -226 q 261 -273 307 -265 q 148 -281 216 -281 q 123 -280 140 -281 q 97 -280 106 -280 l 97 -138 q 114 -138 103 -138 q 128 -139 124 -139 q 221 -113 197 -139 q 246 -4 246 -87 l 246 157 q 276 300 246 258 q 386 359 306 342 q 276 420 306 377 q 246 562 246 462 l 246 726 q 221 835 246 809 q 128 861 197 861 q 114 860 124 861 q 97 860 103 860 l 97 1002 "},"â":{"x_min":62,"x_max":626,"ha":673,"o":"m 425 410 q 286 318 322 359 q 250 222 250 278 q 269 145 250 170 q 330 121 288 121 q 401 162 377 121 q 425 286 425 203 l 425 410 m 450 0 q 439 26 443 8 q 430 76 435 44 q 356 3 401 28 q 251 -21 311 -21 q 111 39 161 -21 q 62 206 62 99 q 105 360 62 303 q 279 475 149 418 q 315 492 292 481 q 422 598 422 537 q 401 655 422 635 q 341 676 380 676 q 268 649 291 676 q 245 566 245 623 l 245 551 l 69 551 q 133 743 69 683 q 341 804 198 804 q 542 748 484 804 q 600 555 600 693 l 600 112 q 606 53 600 80 q 626 0 612 26 l 450 0 m 151 868 l 268 1061 l 407 1061 l 525 868 l 440 868 l 338 969 l 235 868 l 151 868 "},"ø":{"x_min":-2.71875,"x_max":655.109375,"ha":664,"o":"m 426 479 l 246 205 q 267 137 247 159 q 330 115 288 115 q 405 147 385 115 q 426 291 426 180 l 426 479 m 239 319 l 419 591 q 391 649 413 630 q 332 668 370 668 q 258 628 278 668 q 237 466 237 589 q 238 398 237 447 q 239 319 239 349 m -2 -33 l 91 110 q 64 218 72 158 q 56 365 56 277 q 63 551 56 484 q 87 665 70 617 q 174 770 112 734 q 332 806 237 806 q 437 792 393 806 q 516 750 481 779 l 587 862 l 655 812 l 570 682 q 599 566 590 630 q 609 408 609 503 q 548 68 609 157 q 332 -21 487 -21 q 223 -7 267 -21 q 143 37 178 6 l 64 -82 l -2 -33 "},"Ä":{"x_min":12,"x_max":746,"ha":760,"o":"m 291 419 l 457 419 l 373 856 l 291 419 m 12 0 l 247 1044 l 508 1044 l 746 0 l 536 0 l 484 262 l 260 262 l 210 0 l 12 0 m 422 1148 l 422 1309 l 571 1309 l 571 1148 l 422 1148 m 190 1148 l 190 1309 l 339 1309 l 339 1148 l 190 1148 "},"‰":{"x_min":61,"x_max":1505,"ha":1565,"o":"m 1210 241 q 1226 117 1210 148 q 1287 86 1243 86 q 1351 116 1333 86 q 1369 239 1369 147 q 1350 359 1369 326 q 1285 393 1332 393 q 1226 360 1243 393 q 1210 241 1210 327 m 1074 243 q 1123 439 1074 379 q 1285 499 1173 499 q 1453 440 1402 499 q 1505 244 1505 381 q 1452 43 1505 106 q 1285 -20 1400 -20 q 1123 40 1172 -20 q 1074 243 1074 101 m 715 241 q 731 117 715 149 q 793 86 748 86 q 856 116 839 86 q 874 239 874 146 q 855 359 874 326 q 790 393 836 393 q 731 360 748 393 q 715 241 715 327 m 579 243 q 628 439 579 379 q 790 499 678 499 q 958 440 907 499 q 1010 244 1010 381 q 957 43 1010 106 q 790 -20 905 -20 q 628 40 677 -20 q 579 243 579 101 m 197 792 q 213 669 197 700 q 276 638 230 638 q 338 668 321 638 q 356 792 356 698 q 337 911 356 878 q 272 945 319 945 q 213 912 230 945 q 197 792 197 879 m 61 797 q 110 992 61 933 q 273 1051 160 1051 q 441 992 390 1051 q 492 798 492 934 q 439 595 492 659 q 273 532 387 532 q 110 593 160 532 q 61 797 61 654 m 244 -20 l 721 1051 l 824 1051 l 346 -20 l 244 -20 "},"N":{"x_min":89,"x_max":739,"ha":828,"o":"m 89 0 l 89 1044 l 288 1044 l 560 313 l 555 1044 l 739 1044 l 739 0 l 540 0 l 266 731 l 272 0 l 89 0 "},"—":{"x_min":0,"x_max":1389,"ha":1389,"o":"m 0 338 l 0 447 l 1389 447 l 1389 338 l 0 338 "},"2":{"x_min":58,"x_max":639,"ha":694,"o":"m 59 0 q 58 16 59 5 q 58 33 58 27 q 107 264 58 153 q 257 479 156 374 q 312 532 276 497 q 402 629 380 596 q 433 695 423 659 q 443 776 443 731 q 419 875 443 843 q 345 907 395 907 q 269 867 293 907 q 245 741 245 828 q 245 716 245 725 q 246 701 246 707 l 65 701 q 64 719 65 707 q 63 735 63 730 q 132 975 63 899 q 351 1051 202 1051 q 565 982 491 1051 q 639 784 639 914 q 625 673 639 724 q 584 576 612 622 q 487 463 562 539 q 427 400 448 423 l 426 400 q 256 167 276 234 l 626 167 l 626 0 l 59 0 "},"ü":{"x_min":77,"x_max":595,"ha":672,"o":"m 595 785 l 595 0 l 417 0 l 417 78 q 347 4 389 29 q 252 -21 305 -21 q 121 27 166 -21 q 77 168 77 76 l 77 785 l 252 785 l 252 272 q 269 164 252 194 q 329 135 287 135 q 394 167 375 135 q 413 283 413 200 l 413 785 l 595 785 m 378 884 l 378 1045 l 527 1045 l 527 884 l 378 884 m 146 884 l 146 1045 l 295 1045 l 295 884 l 146 884 "},"":{"x_min":25,"x_max":618,"ha":693,"o":"m 618 0 l 439 0 l 439 1044 l 618 1044 l 618 0 m 96 0 l 96 650 l 25 650 l 25 785 l 96 785 l 96 862 q 134 1005 96 963 q 263 1048 173 1048 q 303 1047 282 1048 q 351 1044 325 1046 l 351 908 q 341 908 347 908 q 333 909 335 909 q 290 897 303 909 q 278 857 278 885 l 278 785 l 351 785 l 351 650 l 278 650 l 278 0 l 96 0 "},"Ó":{"x_min":68,"x_max":745,"ha":815,"o":"m 267 521 q 296 197 267 264 q 407 131 326 131 q 516 196 487 131 q 546 521 546 261 q 516 848 546 782 q 406 915 486 915 q 296 848 326 915 q 267 521 267 782 m 68 522 q 83 787 68 688 q 132 936 99 886 q 240 1038 177 1008 q 406 1069 303 1069 q 572 1038 509 1069 q 681 936 635 1008 q 729 786 714 885 q 745 522 745 687 q 729 257 745 357 q 681 107 713 158 q 572 5 635 36 q 406 -25 509 -25 q 240 5 303 -25 q 132 107 177 36 q 83 256 99 157 q 68 522 68 355 m 313 1132 l 431 1325 l 605 1325 l 397 1132 l 313 1132 "},"˜":{"x_min":157,"x_max":538,"ha":694,"o":"m 216 876 l 157 876 q 201 994 170 955 q 278 1034 231 1034 q 299 1032 288 1034 q 319 1028 309 1031 l 394 1006 q 409 1003 401 1004 q 426 1002 418 1002 q 460 1014 447 1002 q 478 1053 472 1027 l 538 1053 q 493 934 526 976 q 411 892 460 892 q 393 893 401 892 q 376 897 385 894 l 294 920 q 283 923 289 922 q 272 925 278 925 q 236 912 250 925 q 216 876 222 899 "},"ˇ":{"x_min":160,"x_max":534,"ha":694,"o":"m 160 1061 l 244 1061 l 347 959 l 449 1061 l 534 1061 l 416 868 l 277 868 l 160 1061 "},"Ÿ":{"x_min":12,"x_max":751,"ha":764,"o":"m 286 0 l 286 442 l 12 1044 l 227 1044 l 385 651 l 541 1044 l 751 1044 l 482 442 l 482 0 l 286 0 m 424 1148 l 424 1309 l 573 1309 l 573 1148 l 424 1148 m 192 1148 l 192 1309 l 341 1309 l 341 1148 l 192 1148 "},"€":{"x_min":-31,"x_max":648,"ha":694,"o":"m 454 311 l 648 311 l 648 290 q 578 53 648 132 q 367 -25 508 -25 q 146 73 219 -25 q 73 376 74 172 l -14 376 l 29 473 l 73 473 l 73 571 l -31 571 l 12 668 l 73 668 q 146 970 74 871 q 367 1069 219 1069 q 578 990 509 1069 q 648 750 647 911 l 454 750 l 454 758 q 431 885 454 845 q 359 926 408 926 q 288 871 309 926 q 268 668 268 816 l 527 668 l 484 571 l 268 571 l 268 473 l 441 473 l 398 376 l 268 376 q 290 169 269 221 q 364 118 311 118 q 432 160 410 118 q 454 292 454 202 l 454 311 "},"ß":{"x_min":79,"x_max":613,"ha":675,"o":"m 79 0 l 79 738 q 137 975 79 903 q 328 1048 195 1048 q 522 983 455 1048 q 589 796 589 918 q 564 668 589 719 q 492 596 540 618 q 584 500 556 567 q 613 306 613 432 q 563 66 613 143 q 411 -10 514 -10 q 360 -5 382 -10 q 321 8 338 0 l 321 142 q 346 133 336 136 q 364 130 355 130 q 418 167 403 130 q 433 322 433 205 q 412 482 433 441 q 339 524 392 524 l 329 524 l 329 648 q 336 647 332 647 q 344 647 339 647 q 398 676 382 647 q 415 776 415 706 q 396 879 415 848 q 333 910 377 910 q 272 878 290 910 q 255 770 255 847 l 255 0 l 79 0 "},"s":{"x_min":51,"x_max":560,"ha":611,"o":"m 52 261 l 216 261 l 216 238 q 236 142 216 170 q 305 114 257 114 q 365 134 343 114 q 387 190 387 154 q 299 293 387 235 q 264 316 276 308 l 256 322 q 56 591 56 459 q 120 751 56 696 q 309 806 185 806 q 488 745 428 806 q 548 561 548 684 l 548 545 l 388 545 l 388 561 q 366 644 388 618 q 297 671 344 671 q 243 652 263 671 q 223 603 223 633 q 241 551 223 574 q 321 486 259 528 q 362 458 335 477 q 560 197 560 328 q 493 36 560 93 q 303 -21 426 -21 q 112 40 173 -21 q 51 230 51 101 q 51 245 51 235 q 52 261 52 255 "},"?":{"x_min":74,"x_max":608,"ha":682,"o":"m 243 763 l 74 763 l 74 789 q 142 996 74 924 q 340 1069 211 1069 q 536 998 465 1069 q 608 803 608 927 q 597 715 608 756 q 566 642 586 675 q 490 541 541 601 q 422 459 438 482 q 386 389 397 426 q 374 305 374 351 q 375 292 374 300 q 376 280 376 284 l 212 280 q 210 298 211 288 q 210 328 210 309 q 228 455 210 401 q 291 566 246 509 q 326 608 303 581 q 417 811 417 713 q 395 894 417 866 q 333 923 373 923 q 265 889 287 923 q 243 788 243 856 l 243 763 m 383 180 l 383 0 l 209 0 l 209 180 l 383 180 "},"c":{"x_min":56,"x_max":575,"ha":631,"o":"m 574 308 q 574 290 574 299 q 575 263 575 281 q 513 48 575 118 q 320 -21 451 -21 q 114 66 173 -21 q 56 392 56 154 q 114 717 56 629 q 321 806 173 806 q 512 741 450 806 q 574 541 574 677 l 574 514 l 400 514 l 400 531 q 381 634 400 603 q 322 666 363 666 q 261 635 280 666 q 243 533 243 604 l 243 262 q 260 149 243 181 q 320 118 278 118 q 385 154 367 118 q 403 291 403 191 l 403 308 l 574 308 "},"¶":{"x_min":27,"x_max":668,"ha":694,"o":"m 668 1003 l 668 928 l 591 928 l 591 0 l 487 0 l 487 928 l 380 928 l 380 0 l 276 0 l 276 532 q 94 600 162 536 q 27 766 27 664 q 99 938 27 873 q 292 1003 172 1003 l 668 1003 "},"•":{"x_min":208,"x_max":609,"ha":819,"o":"m 208 516 q 266 657 208 599 q 409 716 325 716 q 550 657 491 716 q 609 516 609 598 q 549 374 609 433 q 407 315 490 315 q 266 373 324 315 q 208 516 208 432 "},"(":{"x_min":96,"x_max":417,"ha":457,"o":"m 302 -264 q 146 57 196 -110 q 96 431 96 226 q 148 769 96 605 q 298 1069 200 933 l 411 1069 q 311 786 345 956 q 278 397 278 616 q 312 21 278 182 q 417 -264 346 -140 l 302 -264 "},"◊":{"x_min":4,"x_max":682,"ha":686,"o":"m 343 956 l 81 402 l 343 -157 l 604 402 l 343 956 m 343 1122 l 682 402 l 343 -323 l 4 402 l 343 1122 "},"­":{"x_min":62,"x_max":393,"ha":456,"o":"m 62 311 l 62 473 l 393 473 l 393 311 l 62 311 "},":":{"x_min":103,"x_max":277,"ha":379,"o":"m 103 584 l 103 772 l 277 772 l 277 584 l 103 584 m 103 0 l 103 187 l 277 187 l 277 0 l 103 0 "},"Û":{"x_min":89,"x_max":742,"ha":829,"o":"m 89 1044 l 284 1044 l 284 340 q 313 177 284 220 q 418 134 342 134 q 521 177 492 134 q 550 343 550 220 l 550 1044 l 742 1044 l 742 323 q 730 170 742 218 q 690 84 718 121 q 579 2 648 29 q 415 -25 510 -25 q 162 52 236 -25 q 89 323 89 130 l 89 1044 m 228 1132 l 345 1325 l 484 1325 l 602 1132 l 517 1132 l 415 1233 l 312 1132 l 228 1132 "},"V":{"x_min":18,"x_max":728,"ha":760,"o":"m 253 0 l 18 1044 l 226 1044 l 382 210 l 522 1044 l 728 1044 l 509 0 l 253 0 "}," ":{"x_min":0,"x_max":0,"ha":694},"@":{"x_min":61,"x_max":1329,"ha":1389,"o":"m 791 183 q 705 99 753 126 q 589 73 656 73 q 426 131 482 73 q 371 303 371 189 q 465 576 371 466 q 698 686 560 686 q 792 663 752 686 q 858 597 832 641 l 894 663 l 1015 663 l 915 257 q 911 242 913 250 q 910 230 910 234 q 926 194 910 206 q 975 182 943 182 q 1030 196 1001 182 q 1084 234 1059 209 q 1172 360 1142 288 q 1203 520 1203 433 q 1077 788 1203 683 q 752 893 951 893 q 574 869 657 893 q 425 801 492 846 q 248 607 310 724 q 186 353 186 491 q 326 20 186 145 q 701 -104 466 -104 q 915 -70 811 -104 q 1110 25 1020 -37 l 1166 -53 q 946 -170 1062 -131 q 703 -210 830 -210 q 464 -177 573 -210 q 270 -79 355 -144 q 113 109 165 2 q 61 352 61 216 q 96 568 61 465 q 201 755 132 671 q 442 940 301 877 q 756 1004 583 1004 q 971 973 871 1004 q 1147 885 1072 942 q 1283 723 1238 814 q 1329 517 1329 632 q 1284 310 1329 405 q 1156 149 1240 216 q 1053 90 1109 111 q 936 70 997 70 q 828 99 865 70 q 791 183 792 128 m 825 474 q 786 558 816 529 q 706 587 755 587 q 571 502 628 587 q 515 300 515 418 q 542 205 515 238 q 622 173 569 173 q 724 215 678 173 q 788 327 771 258 l 825 474 "},"¾":{"x_min":35,"x_max":1076,"ha":1107,"o":"m 787 199 l 909 199 l 909 438 l 787 199 m 907 0 l 907 115 l 699 115 l 699 209 l 893 578 l 1020 578 l 1020 202 l 1076 202 l 1076 115 l 1020 115 l 1020 0 l 907 0 m 310 -20 l 205 -20 l 793 1051 l 899 1051 l 310 -20 m 36 652 l 150 652 l 150 644 q 165 552 150 578 q 216 526 180 526 q 268 548 253 526 q 283 631 283 571 q 264 709 283 690 q 195 729 246 729 q 175 728 183 729 q 160 727 168 728 l 160 804 l 169 804 q 248 821 226 804 q 271 886 271 839 q 258 946 271 929 q 214 964 245 964 q 169 945 183 964 q 156 883 156 926 l 156 869 l 42 869 l 42 891 q 86 1004 42 966 q 220 1043 131 1043 q 345 1003 301 1043 q 389 891 389 964 q 370 811 389 842 q 314 769 351 779 q 382 724 360 758 q 405 632 405 690 q 357 489 405 536 q 214 443 310 443 q 79 488 123 443 q 35 628 35 533 q 35 639 35 631 q 36 652 36 647 "},"i":{"x_min":78,"x_max":258,"ha":336,"o":"m 78 882 l 78 1044 l 258 1044 l 258 882 l 78 882 m 78 0 l 78 785 l 258 785 l 258 0 l 78 0 "},"≤":{"x_min":175,"x_max":983,"ha":1157,"o":"m 175 133 l 983 133 l 983 -1 l 175 -1 l 175 133 m 981 842 l 981 700 l 416 521 l 981 343 l 981 202 l 175 463 l 175 580 l 981 842 "},"m":{"x_min":81,"x_max":968,"ha":1043,"o":"m 81 0 l 81 785 l 249 785 l 249 695 q 323 781 280 756 q 439 806 365 806 q 539 779 496 806 q 600 707 582 753 q 678 782 636 759 q 780 806 720 806 q 920 754 873 806 q 968 603 968 703 l 968 0 l 790 0 l 790 501 q 771 621 790 594 q 701 649 752 649 q 633 618 653 649 q 614 505 614 587 l 614 0 l 435 0 l 435 510 q 416 619 435 590 q 351 649 397 649 q 281 617 302 649 q 260 513 260 586 l 260 0 l 81 0 "},"ž":{"x_min":29,"x_max":501,"ha":532,"o":"m 29 0 l 29 144 l 294 632 l 31 632 l 31 785 l 498 785 l 498 653 l 224 154 l 501 154 l 501 0 l 29 0 m 79 1061 l 163 1061 l 266 959 l 368 1061 l 453 1061 l 335 868 l 196 868 l 79 1061 "},"á":{"x_min":62,"x_max":626,"ha":673,"o":"m 425 410 q 286 318 322 359 q 250 222 250 278 q 269 145 250 170 q 330 121 288 121 q 401 162 377 121 q 425 286 425 203 l 425 410 m 450 0 q 439 26 443 8 q 430 76 435 44 q 356 3 401 28 q 251 -21 311 -21 q 111 39 161 -21 q 62 206 62 99 q 105 360 62 303 q 279 475 149 418 q 315 492 292 481 q 422 598 422 537 q 401 655 422 635 q 341 676 380 676 q 268 649 291 676 q 245 566 245 623 l 245 551 l 69 551 q 133 743 69 683 q 341 804 198 804 q 542 748 484 804 q 600 555 600 693 l 600 112 q 606 53 600 80 q 626 0 612 26 l 450 0 m 243 868 l 361 1061 l 535 1061 l 327 868 l 243 868 "},"×":{"x_min":187,"x_max":989,"ha":1157,"o":"m 281 816 l 587 510 l 893 816 l 989 721 l 683 414 l 989 108 l 893 14 l 587 320 l 281 14 l 187 108 l 493 414 l 187 721 l 281 816 "},"İ":{"x_min":89,"x_max":284,"ha":372,"o":"m 89 0 l 89 1044 l 284 1044 l 284 0 l 89 0 m 114 1150 l 114 1307 l 258 1307 l 258 1150 l 114 1150 "},"K":{"x_min":89,"x_max":750,"ha":758,"o":"m 89 0 l 89 1044 l 280 1044 l 280 608 l 517 1044 l 733 1044 l 469 610 l 750 0 l 536 0 l 349 431 l 280 316 l 280 0 l 89 0 "},"7":{"x_min":57,"x_max":635,"ha":694,"o":"m 184 0 q 266 411 199 194 q 449 860 333 628 l 57 860 l 57 1032 l 635 1032 l 635 881 q 465 462 528 684 q 384 0 402 240 l 184 0 "},"¨":{"x_min":157,"x_max":538,"ha":694,"o":"m 389 884 l 389 1045 l 538 1045 l 538 884 l 389 884 m 157 884 l 157 1045 l 306 1045 l 306 884 l 157 884 "},"Y":{"x_min":12,"x_max":751,"ha":764,"o":"m 286 0 l 286 442 l 12 1044 l 227 1044 l 385 651 l 541 1044 l 751 1044 l 482 442 l 482 0 l 286 0 "},"E":{"x_min":89,"x_max":634,"ha":688,"o":"m 89 0 l 89 1044 l 625 1044 l 625 870 l 282 870 l 282 628 l 602 628 l 602 463 l 282 463 l 282 176 l 634 176 l 634 0 l 89 0 "},"Ô":{"x_min":68,"x_max":745,"ha":815,"o":"m 267 521 q 296 197 267 264 q 407 131 326 131 q 516 196 487 131 q 546 521 546 261 q 516 848 546 782 q 406 915 486 915 q 296 848 326 915 q 267 521 267 782 m 68 522 q 83 787 68 688 q 132 936 99 886 q 240 1038 177 1008 q 406 1069 303 1069 q 572 1038 509 1069 q 681 936 635 1008 q 729 786 714 885 q 745 522 745 687 q 729 257 745 357 q 681 107 713 158 q 572 5 635 36 q 406 -25 509 -25 q 240 5 303 -25 q 132 107 177 36 q 83 256 99 157 q 68 522 68 355 m 221 1132 l 338 1325 l 477 1325 l 595 1132 l 510 1132 l 408 1233 l 305 1132 l 221 1132 "},"Ï":{"x_min":-4,"x_max":377,"ha":372,"o":"m 89 0 l 89 1044 l 284 1044 l 284 0 l 89 0 m 228 1148 l 228 1309 l 377 1309 l 377 1148 l 228 1148 m -4 1148 l -4 1309 l 145 1309 l 145 1148 l -4 1148 "},"‹":{"x_min":93,"x_max":305,"ha":399,"o":"m 305 655 l 305 504 l 174 393 l 305 281 l 305 131 l 93 322 l 93 462 l 305 655 "},"±":{"x_min":172,"x_max":985,"ha":1157,"o":"m 172 134 l 985 134 l 985 -1 l 172 -1 l 172 134 m 510 829 l 647 829 l 647 608 l 985 608 l 985 473 l 647 473 l 647 253 l 510 253 l 510 473 l 172 473 l 172 608 l 510 608 l 510 829 "},"ì":{"x_min":-28,"x_max":264,"ha":336,"o":"m 78 0 l 78 785 l 258 785 l 258 0 l 78 0 m 264 868 l 179 868 l -28 1061 l 145 1061 l 264 868 "},"|":{"x_min":278,"x_max":418,"ha":694,"o":"m 278 1061 l 418 1061 l 418 -328 l 278 -328 l 278 1061 "},"§":{"x_min":53,"x_max":642,"ha":694,"o":"m 431 338 q 468 373 455 353 q 481 418 481 393 q 468 458 481 440 q 421 502 456 476 l 269 613 q 228 581 242 599 q 214 544 214 563 q 372 380 214 491 q 431 338 409 353 m 80 111 l 252 111 q 251 100 252 107 q 251 89 251 93 q 273 21 251 44 q 343 -2 296 -2 q 409 17 388 -2 q 431 76 431 36 q 416 122 431 101 q 348 181 401 142 l 180 308 q 79 408 105 363 q 53 513 53 453 q 86 624 53 580 q 182 687 119 669 q 122 754 141 715 q 103 847 103 793 q 171 1011 103 954 q 365 1069 239 1069 q 547 1014 484 1069 q 610 855 610 959 q 609 844 610 851 q 608 833 608 837 l 439 833 l 439 842 q 419 911 439 889 q 358 933 400 933 q 297 917 316 933 q 278 867 278 901 q 369 746 278 810 q 384 735 379 739 l 486 663 q 611 549 581 597 q 642 437 642 502 q 610 328 642 369 q 514 268 578 286 q 580 194 558 243 q 602 71 602 146 q 534 -90 602 -36 q 331 -145 466 -145 q 141 -88 203 -145 q 79 81 79 -32 q 79 95 79 85 q 80 111 80 105 "},"q":{"x_min":57,"x_max":596,"ha":675,"o":"m 324 656 q 258 608 276 656 q 241 379 241 561 q 259 175 241 219 q 324 132 277 132 q 399 183 379 132 q 419 442 419 234 q 399 614 419 573 q 324 656 379 656 m 414 66 q 353 0 391 22 q 259 -21 315 -21 q 102 68 147 -21 q 57 396 57 158 q 103 715 57 625 q 263 806 150 806 q 361 780 321 806 q 424 702 401 754 l 424 785 l 596 785 l 596 -264 l 414 -264 l 414 66 "},"b":{"x_min":79,"x_max":617,"ha":675,"o":"m 349 653 q 275 601 295 653 q 255 359 255 549 q 275 171 255 213 q 349 129 295 129 q 415 175 397 129 q 433 389 433 221 q 415 608 433 564 q 349 653 397 653 m 79 0 l 79 1044 l 261 1044 l 261 718 q 321 784 284 762 q 414 806 359 806 q 571 716 526 806 q 617 388 617 626 q 570 69 617 159 q 410 -21 524 -21 q 313 5 353 -21 q 251 82 273 31 l 251 0 l 79 0 "},"®":{"x_min":75,"x_max":1083,"ha":1157,"o":"m 505 701 l 505 539 l 572 539 q 660 557 632 539 q 688 617 688 576 q 658 680 688 660 q 565 701 628 701 l 505 701 m 369 787 l 588 787 q 768 746 708 787 q 828 626 828 706 q 795 531 828 570 q 705 478 763 492 l 830 228 l 679 228 l 572 457 l 505 457 l 505 228 l 369 228 l 369 787 m 579 918 q 419 887 492 918 q 286 799 345 857 q 191 659 224 737 q 158 498 158 581 q 189 339 158 414 q 279 205 220 263 q 416 110 339 143 q 577 78 494 78 q 735 109 659 78 q 875 201 812 141 q 967 333 934 257 q 1000 490 1000 409 q 969 655 1000 580 q 880 791 939 731 q 742 886 818 854 q 579 918 666 918 m 577 1003 q 774 964 682 1003 q 939 851 867 925 q 1046 689 1009 780 q 1083 496 1083 598 q 1045 301 1083 393 q 934 140 1007 210 q 769 30 861 68 q 577 -7 676 -7 q 384 32 476 -7 q 219 145 292 71 q 111 307 148 216 q 75 496 75 397 q 93 631 75 566 q 148 759 111 697 q 329 938 216 874 q 577 1003 441 1003 "},"L":{"x_min":89,"x_max":635,"ha":677,"o":"m 89 0 l 89 1044 l 284 1044 l 284 178 l 635 178 l 635 0 l 89 0 "}," ":{"x_min":0,"x_max":0,"ha":347},"∑":{"x_min":28,"x_max":968,"ha":997,"o":"m 45 999 l 932 999 l 932 819 l 336 819 l 757 381 l 335 -87 l 968 -87 l 968 -267 l 28 -267 l 28 -150 l 501 373 l 45 841 l 45 999 "},"À":{"x_min":12,"x_max":746,"ha":760,"o":"m 291 419 l 457 419 l 373 856 l 291 419 m 12 0 l 247 1044 l 508 1044 l 746 0 l 536 0 l 484 262 l 260 262 l 210 0 l 12 0 m 476 1132 l 391 1132 l 184 1325 l 357 1325 l 476 1132 "},"+":{"x_min":172,"x_max":985,"ha":1157,"o":"m 510 828 l 647 828 l 647 482 l 985 482 l 985 347 l 647 347 l 647 0 l 510 0 l 510 347 l 172 347 l 172 482 l 510 482 l 510 828 "},"½":{"x_min":38,"x_max":1072,"ha":1107,"o":"m 706 0 q 705 9 706 2 q 705 18 705 15 q 736 147 705 85 q 831 268 768 209 q 867 299 843 279 q 923 353 910 334 q 942 390 936 370 q 949 435 949 410 q 933 490 949 472 q 887 509 918 509 q 839 486 854 509 q 825 415 825 464 l 825 394 l 711 394 q 710 403 711 396 q 709 412 709 409 q 752 546 709 504 q 890 589 795 589 q 1024 550 977 589 q 1072 439 1072 511 q 1063 378 1072 406 q 1037 322 1055 350 q 976 260 1024 302 q 938 225 951 238 l 930 217 q 831 93 843 130 l 1063 93 l 1063 0 l 706 0 m 309 -20 l 205 -20 l 793 1051 l 899 1051 l 309 -20 m 184 454 l 184 867 l 38 867 l 38 936 q 164 964 118 937 q 219 1043 210 991 l 299 1043 l 299 454 l 184 454 "},"Ë":{"x_min":89,"x_max":634,"ha":688,"o":"m 89 0 l 89 1044 l 625 1044 l 625 870 l 282 870 l 282 628 l 602 628 l 602 463 l 282 463 l 282 176 l 634 176 l 634 0 l 89 0 m 393 1148 l 393 1309 l 542 1309 l 542 1148 l 393 1148 m 161 1148 l 161 1309 l 310 1309 l 310 1148 l 161 1148 "},"'":{"x_min":54,"x_max":185,"ha":239,"o":"m 54 975 l 185 975 l 185 596 l 54 596 l 54 975 "},"Š":{"x_min":66,"x_max":691,"ha":761,"o":"m 68 367 l 263 367 l 263 299 q 287 168 263 203 q 370 134 311 134 q 463 165 431 134 q 496 257 496 196 q 473 337 496 303 q 376 423 451 370 l 277 494 q 113 641 148 583 q 79 788 79 700 q 156 994 79 919 q 371 1069 234 1069 q 593 989 516 1069 q 671 761 671 910 q 670 738 671 746 q 669 724 670 730 l 485 724 l 485 751 q 457 873 485 836 q 366 910 429 910 q 292 882 319 910 q 266 806 266 855 q 385 660 266 740 l 387 659 l 494 586 q 650 443 609 510 q 691 271 691 376 q 609 52 691 129 q 376 -25 528 -25 q 142 56 219 -25 q 66 304 66 137 q 68 362 66 322 l 68 367 m 193 1325 l 277 1325 l 380 1223 l 482 1325 l 567 1325 l 449 1132 l 310 1132 l 193 1325 "},"˛":{"x_min":225,"x_max":457,"ha":694,"o":"m 429 0 q 367 -70 386 -39 q 348 -133 348 -102 q 360 -174 348 -161 q 399 -187 373 -187 l 457 -187 l 457 -317 l 418 -317 q 269 -286 313 -317 q 225 -183 225 -255 q 256 -87 225 -131 q 354 0 287 -43 l 429 0 "},"ð":{"x_min":56,"x_max":609,"ha":664,"o":"m 242 397 l 242 363 q 260 156 242 195 q 330 118 278 118 q 404 156 385 118 q 423 372 423 194 l 423 424 q 403 597 423 561 q 332 633 384 633 q 261 598 280 633 q 242 423 242 563 l 242 397 m 376 722 q 325 789 351 760 q 272 836 298 817 l 93 737 l 56 809 l 206 890 q 152 923 176 908 q 110 948 128 937 l 142 1044 q 238 993 195 1017 q 317 944 280 969 l 492 1043 l 537 967 l 390 889 q 558 682 507 802 q 609 368 609 562 q 547 62 609 145 q 332 -21 486 -21 q 117 62 178 -21 q 56 368 56 145 q 110 664 56 574 q 288 754 165 754 q 335 746 314 754 q 376 722 357 738 "},"ş":{"x_min":51,"x_max":560,"ha":611,"o":"m 52 261 l 216 261 l 216 238 q 236 142 216 170 q 305 114 257 114 q 365 134 343 114 q 387 190 387 154 q 299 293 387 235 q 264 316 276 308 l 256 322 q 56 591 56 459 q 120 751 56 696 q 309 806 185 806 q 488 745 428 806 q 548 561 548 684 l 548 545 l 388 545 l 388 561 q 366 644 388 618 q 297 671 344 671 q 243 652 263 671 q 223 603 223 633 q 241 551 223 574 q 321 486 259 528 q 362 458 335 477 q 560 197 560 328 q 493 36 560 93 q 303 -21 426 -21 q 112 40 173 -21 q 51 230 51 101 q 51 245 51 235 q 52 261 52 255 m 86 -216 q 181 -231 150 -227 q 230 -235 212 -235 q 274 -223 260 -235 q 289 -186 289 -211 q 272 -155 289 -165 q 218 -145 255 -145 l 203 -145 l 203 0 l 281 0 l 281 -57 q 382 -96 347 -63 q 417 -187 417 -130 q 371 -292 417 -255 q 244 -329 326 -329 q 178 -324 216 -329 q 86 -310 140 -320 l 86 -216 "},"ı":{"x_min":78,"x_max":258,"ha":336,"o":"m 78 0 l 78 785 l 258 785 l 258 0 l 78 0 "},"Ć":{"x_min":68,"x_max":694.359375,"ha":761,"o":"m 504 372 l 693 372 q 693 352 693 365 q 694 331 694 338 q 618 62 694 150 q 384 -25 541 -25 q 256 -5 310 -25 q 164 54 202 13 q 89 203 111 108 q 68 534 68 298 q 80 790 68 695 q 120 932 93 885 q 225 1036 162 1004 q 384 1069 287 1069 q 615 986 543 1069 q 688 720 687 903 l 499 720 l 499 745 q 471 872 499 830 q 388 914 444 914 q 293 856 318 914 q 268 537 268 798 q 292 194 268 255 q 387 134 317 134 q 478 181 452 134 q 504 357 504 229 l 504 372 m 285 1132 l 403 1325 l 577 1325 l 369 1132 l 285 1132 "},"ä":{"x_min":62,"x_max":626,"ha":673,"o":"m 425 410 q 286 318 322 359 q 250 222 250 278 q 269 145 250 170 q 330 121 288 121 q 401 162 377 121 q 425 286 425 203 l 425 410 m 450 0 q 439 26 443 8 q 430 76 435 44 q 356 3 401 28 q 251 -21 311 -21 q 111 39 161 -21 q 62 206 62 99 q 105 360 62 303 q 279 475 149 418 q 315 492 292 481 q 422 598 422 537 q 401 655 422 635 q 341 676 380 676 q 268 649 291 676 q 245 566 245 623 l 245 551 l 69 551 q 133 743 69 683 q 341 804 198 804 q 542 748 484 804 q 600 555 600 693 l 600 112 q 606 53 600 80 q 626 0 612 26 l 450 0 m 380 884 l 380 1045 l 529 1045 l 529 884 l 380 884 m 148 884 l 148 1045 l 297 1045 l 297 884 l 148 884 "},"¹":{"x_min":40,"x_max":314,"ha":458,"o":"m 193 412 l 193 854 l 40 854 l 40 927 q 172 958 124 929 q 229 1043 220 987 l 314 1043 l 314 412 l 193 412 "},"£":{"x_min":49,"x_max":670,"ha":694,"o":"m 100 -19 l 49 111 q 152 218 115 156 q 190 344 190 280 q 186 392 190 367 q 178 443 183 417 l 49 443 l 49 539 l 135 539 q 87 648 103 590 q 71 770 71 707 q 150 975 71 899 q 364 1051 230 1051 q 576 980 504 1051 q 649 774 649 910 q 648 747 649 757 q 647 730 648 738 l 474 730 l 474 755 q 447 871 474 834 q 364 909 421 909 q 284 871 312 909 q 256 763 256 833 q 272 656 256 715 q 320 539 289 597 l 517 539 l 517 443 l 353 443 q 359 414 357 428 q 362 384 362 399 q 323 255 362 320 q 208 127 285 190 q 279 158 246 148 q 343 168 311 168 q 430 155 374 168 q 516 142 486 142 q 569 152 541 142 q 630 184 597 162 l 670 33 q 594 -4 636 8 q 504 -17 552 -17 q 372 3 457 -17 q 250 24 287 24 q 180 13 218 24 q 100 -19 143 2 "},"W":{"x_min":25,"x_max":1112,"ha":1137,"o":"m 228 0 l 25 1044 l 226 1044 l 354 252 l 491 1044 l 652 1044 l 802 237 l 913 1044 l 1112 1044 l 923 0 l 692 0 l 571 659 l 460 0 l 228 0 "},"Ğ":{"x_min":68,"x_max":736,"ha":818,"o":"m 604 0 l 590 115 q 508 7 560 40 q 365 -25 456 -25 q 134 99 201 -25 q 68 554 68 223 q 83 801 68 708 q 133 945 99 895 q 241 1038 174 1008 q 408 1068 308 1068 q 656 988 576 1068 q 736 742 736 909 l 736 716 l 554 716 l 554 726 q 519 867 554 819 q 415 915 484 915 q 299 849 330 915 q 268 505 268 784 q 297 209 268 284 q 405 135 327 135 q 516 187 483 135 q 549 367 549 240 l 549 403 l 414 403 l 414 570 l 736 570 l 736 0 l 604 0 m 223 1325 l 300 1325 q 333 1261 307 1281 q 409 1242 359 1242 q 485 1262 459 1242 q 518 1325 512 1282 l 595 1325 q 540 1178 585 1225 q 409 1132 495 1132 q 277 1178 322 1132 q 223 1325 231 1225 "},"v":{"x_min":16,"x_max":601,"ha":616,"o":"m 198 0 l 16 785 l 208 785 l 313 184 l 413 785 l 601 785 l 420 0 l 198 0 "},">":{"x_min":179,"x_max":978,"ha":1157,"o":"m 179 809 l 978 481 l 978 346 l 179 18 l 179 166 l 786 413 l 179 660 l 179 809 "},"û":{"x_min":77,"x_max":595,"ha":672,"o":"m 595 785 l 595 0 l 417 0 l 417 78 q 347 4 389 29 q 252 -21 305 -21 q 121 27 166 -21 q 77 168 77 76 l 77 785 l 252 785 l 252 272 q 269 164 252 194 q 329 135 287 135 q 394 167 375 135 q 413 283 413 200 l 413 785 l 595 785 m 149 868 l 266 1061 l 405 1061 l 523 868 l 438 868 l 336 969 l 233 868 l 149 868 "},"Ð":{"x_min":-5,"x_max":752,"ha":819,"o":"m 92 0 l 92 485 l -5 485 l -5 624 l 92 624 l 92 1044 l 404 1044 q 557 1027 500 1044 q 650 974 613 1011 q 728 837 705 920 q 752 585 752 755 q 736 274 752 368 q 682 115 720 181 q 582 25 646 50 q 360 0 518 0 l 92 0 m 283 154 l 370 154 q 461 163 435 154 q 502 196 487 172 q 541 307 530 236 q 553 534 553 378 q 539 756 553 689 q 494 859 526 824 q 451 883 478 876 q 367 891 424 891 l 283 891 l 283 624 l 439 624 l 439 485 l 283 485 l 283 154 "},"r":{"x_min":81,"x_max":438,"ha":469,"o":"m 81 0 l 81 785 l 254 785 l 254 657 q 334 770 291 736 q 438 805 376 804 l 438 584 q 417 586 427 585 q 392 587 407 587 q 299 552 333 587 q 265 459 265 517 l 265 0 l 81 0 "},"Č":{"x_min":68,"x_max":694.359375,"ha":761,"o":"m 504 372 l 693 372 q 693 352 693 365 q 694 331 694 338 q 618 62 694 150 q 384 -25 541 -25 q 256 -5 310 -25 q 164 54 202 13 q 89 203 111 108 q 68 534 68 298 q 80 790 68 695 q 120 932 93 885 q 225 1036 162 1004 q 384 1069 287 1069 q 615 986 543 1069 q 688 720 687 903 l 499 720 l 499 745 q 471 872 499 830 q 388 914 444 914 q 293 856 318 914 q 268 537 268 798 q 292 194 268 255 q 387 134 317 134 q 478 181 452 134 q 504 357 504 229 l 504 372 m 193 1325 l 277 1325 l 380 1223 l 482 1325 l 567 1325 l 449 1132 l 310 1132 l 193 1325 "},"x":{"x_min":10,"x_max":598,"ha":607,"o":"m 10 0 l 216 401 l 19 785 l 225 785 l 310 588 l 395 785 l 593 785 l 399 401 l 598 0 l 396 0 l 306 209 l 215 0 l 10 0 "},"è":{"x_min":57,"x_max":602,"ha":661,"o":"m 242 492 l 420 492 l 420 525 q 400 636 420 605 q 330 667 380 667 q 262 635 282 667 q 241 525 241 603 q 242 514 241 525 q 242 492 242 502 m 426 269 l 596 269 q 597 253 596 263 q 597 238 597 243 q 533 41 597 104 q 330 -21 469 -21 q 207 -2 257 -21 q 126 54 158 15 q 72 168 88 99 q 57 417 57 238 q 70 622 57 561 q 116 723 84 684 q 205 785 150 764 q 335 806 259 806 q 460 783 407 806 q 547 717 513 761 q 589 618 576 677 q 602 426 602 559 l 602 367 l 245 367 q 243 348 243 358 q 242 316 242 338 q 263 159 242 204 q 334 115 284 115 q 404 151 382 115 q 426 269 426 187 m 426 868 l 341 868 l 134 1061 l 307 1061 l 426 868 "},"Ø":{"x_min":25.15625,"x_max":783.65625,"ha":815,"o":"m 269 373 l 529 798 q 495 886 524 857 q 409 915 465 915 q 297 848 327 915 q 267 492 267 782 q 267 447 267 472 q 269 373 268 423 m 542 651 l 285 229 q 319 154 292 177 q 397 131 345 131 q 513 195 482 131 q 545 488 545 259 q 544 589 545 555 q 542 651 543 622 m 115 140 q 79 294 91 202 q 68 523 68 387 q 84 790 68 684 q 134 945 101 895 q 241 1039 177 1009 q 402 1069 305 1069 q 539 1049 481 1069 q 639 988 597 1029 l 694 1081 l 783 1024 l 704 892 q 734 729 724 828 q 745 499 745 631 q 727 245 745 344 q 671 90 709 145 q 569 1 629 27 q 402 -25 509 -25 q 273 -8 326 -25 q 180 44 221 8 l 112 -63 l 25 -8 l 115 140 "},"÷":{"x_min":171,"x_max":986,"ha":1157,"o":"m 578 250 q 650 219 620 250 q 681 146 681 189 q 650 75 681 105 q 578 46 620 46 q 506 75 536 46 q 476 146 476 104 q 506 219 476 189 q 578 250 536 250 m 171 482 l 986 482 l 986 347 l 171 347 l 171 482 m 578 783 q 650 753 620 783 q 681 681 681 723 q 650 608 681 638 q 578 579 620 579 q 506 608 536 579 q 476 681 476 638 q 506 753 476 723 q 578 783 536 783 "},"h":{"x_min":79,"x_max":597,"ha":673,"o":"m 79 0 l 79 1044 l 259 1044 l 259 710 q 324 780 282 755 q 420 806 366 806 q 551 757 506 806 q 597 616 597 708 l 597 0 l 422 0 l 422 526 q 406 625 422 600 q 350 650 390 650 q 280 617 301 650 q 259 500 259 584 l 259 0 l 79 0 "},".":{"x_min":86,"x_max":261,"ha":347,"o":"m 86 0 l 86 187 l 261 187 l 261 0 l 86 0 "},"f":{"x_min":25,"x_max":351,"ha":382,"o":"m 96 0 l 96 650 l 25 650 l 25 785 l 96 785 l 96 862 q 134 1005 96 963 q 263 1048 173 1048 q 303 1046 282 1048 q 351 1043 325 1045 l 351 908 q 341 908 347 908 q 333 909 335 909 q 290 897 303 909 q 278 857 278 885 l 278 785 l 351 785 l 351 650 l 278 650 l 278 0 l 96 0 "},"“":{"x_min":82,"x_max":518,"ha":615,"o":"m 350 703 l 350 891 q 395 1010 350 961 q 518 1069 441 1058 l 518 1002 q 454 967 477 997 q 431 892 431 938 l 431 881 l 516 881 l 516 703 l 350 703 m 82 703 l 82 891 q 127 1010 82 961 q 250 1069 172 1058 l 250 1002 q 186 967 209 997 q 163 892 163 938 l 163 881 l 248 881 l 248 703 l 82 703 "},"A":{"x_min":12,"x_max":746,"ha":760,"o":"m 291 419 l 457 419 l 373 856 l 291 419 m 12 0 l 247 1044 l 508 1044 l 746 0 l 536 0 l 484 262 l 260 262 l 210 0 l 12 0 "},"O":{"x_min":68,"x_max":745,"ha":815,"o":"m 267 521 q 296 197 267 264 q 407 131 326 131 q 516 196 487 131 q 546 521 546 261 q 516 848 546 782 q 406 915 486 915 q 296 848 326 915 q 267 521 267 782 m 68 522 q 83 787 68 688 q 132 936 99 886 q 240 1038 177 1008 q 406 1069 303 1069 q 572 1038 509 1069 q 681 936 635 1008 q 729 786 714 885 q 745 522 745 687 q 729 257 745 357 q 681 107 713 158 q 572 5 635 36 q 406 -25 509 -25 q 240 5 303 -25 q 132 107 177 36 q 83 256 99 157 q 68 522 68 355 "},"π":{"x_min":-24,"x_max":918,"ha":895,"o":"m 918 741 l 891 589 l 772 589 l 667 0 l 473 0 l 576 589 l 414 589 l 312 0 l 117 0 l 221 589 l 204 589 q 147 567 166 589 q 120 500 127 546 l -24 500 q 59 688 -4 635 q 270 741 123 741 l 918 741 "},"‘":{"x_min":82,"x_max":250,"ha":347,"o":"m 250 1069 l 250 1002 q 186 967 209 997 q 163 892 163 938 l 163 881 l 248 881 l 248 703 l 82 703 l 82 891 q 127 1010 82 961 q 250 1069 172 1058 "},"3":{"x_min":56,"x_max":642,"ha":694,"o":"m 57 351 l 239 351 l 239 338 q 262 175 239 221 q 344 129 286 129 q 425 169 402 129 q 449 316 449 210 q 420 456 449 422 q 308 490 391 490 q 278 489 290 490 q 254 488 266 489 l 254 625 l 268 625 q 396 656 361 625 q 431 772 431 687 q 410 880 431 850 q 339 911 389 911 q 269 877 290 911 q 248 766 248 843 l 248 742 l 67 742 q 66 756 66 748 q 66 780 66 764 q 136 983 66 915 q 347 1051 207 1051 q 547 980 477 1051 q 618 781 618 910 q 587 638 618 694 q 497 563 556 582 q 606 484 570 544 q 642 316 642 423 q 567 63 642 146 q 339 -20 492 -20 q 125 60 194 -20 q 56 309 56 141 q 56 330 56 316 q 57 351 57 344 "},"9":{"x_min":57,"x_max":631,"ha":694,"o":"m 441 397 q 382 343 418 360 q 291 327 345 327 q 114 407 171 327 q 57 656 57 488 q 121 960 57 870 q 336 1051 185 1051 q 483 1023 426 1051 q 578 934 540 996 q 618 795 606 888 q 631 520 631 702 q 619 242 631 334 q 582 105 608 150 q 486 10 544 41 q 343 -20 428 -20 q 144 37 210 -20 q 78 209 78 95 l 78 216 l 260 216 l 260 205 q 281 143 260 165 q 341 122 302 122 q 419 168 397 122 q 441 342 441 215 l 441 397 m 440 691 q 418 857 440 814 q 344 901 397 901 q 270 861 290 901 q 250 691 250 821 q 270 520 250 558 q 345 482 290 482 q 419 525 398 482 q 440 691 440 568 "},"l":{"x_min":78,"x_max":258,"ha":336,"o":"m 78 0 l 78 1044 l 258 1044 l 258 0 l 78 0 "},"":{"x_min":25,"x_max":618,"ha":693,"o":"m 96 0 l 96 650 l 25 650 l 25 785 l 96 785 l 96 863 q 134 1005 96 963 q 263 1048 173 1048 q 303 1047 282 1048 q 351 1044 325 1046 l 351 908 q 341 908 347 908 q 333 909 335 909 q 290 897 303 909 q 278 857 278 885 l 278 785 l 351 785 l 351 650 l 278 650 l 278 0 l 96 0 m 439 882 l 439 1044 l 618 1044 l 618 882 l 439 882 m 439 0 l 439 785 l 618 785 l 618 0 l 439 0 "},"4":{"x_min":47,"x_max":642,"ha":694,"o":"m 186 358 l 381 358 l 381 783 l 186 358 m 377 0 l 377 207 l 47 207 l 47 373 l 356 1032 l 555 1032 l 555 363 l 642 363 l 642 207 l 555 207 l 555 0 l 377 0 "},"Ü":{"x_min":89,"x_max":742,"ha":829,"o":"m 89 1044 l 284 1044 l 284 340 q 313 177 284 220 q 418 134 342 134 q 521 177 492 134 q 550 343 550 220 l 550 1044 l 742 1044 l 742 323 q 730 170 742 218 q 690 84 718 121 q 579 2 648 29 q 415 -25 510 -25 q 162 52 236 -25 q 89 323 89 130 l 89 1044 m 457 1148 l 457 1309 l 606 1309 l 606 1148 l 457 1148 m 225 1148 l 225 1309 l 374 1309 l 374 1148 l 225 1148 "},"à":{"x_min":62,"x_max":626,"ha":673,"o":"m 425 410 q 286 318 322 359 q 250 222 250 278 q 269 145 250 170 q 330 121 288 121 q 401 162 377 121 q 425 286 425 203 l 425 410 m 450 0 q 439 26 443 8 q 430 76 435 44 q 356 3 401 28 q 251 -21 311 -21 q 111 39 161 -21 q 62 206 62 99 q 105 360 62 303 q 279 475 149 418 q 315 492 292 481 q 422 598 422 537 q 401 655 422 635 q 341 676 380 676 q 268 649 291 676 q 245 566 245 623 l 245 551 l 69 551 q 133 743 69 683 q 341 804 198 804 q 542 748 484 804 q 600 555 600 693 l 600 112 q 606 53 600 80 q 626 0 612 26 l 450 0 m 434 868 l 349 868 l 142 1061 l 315 1061 l 434 868 "},"ó":{"x_min":56,"x_max":609,"ha":664,"o":"m 242 400 l 242 382 q 260 158 242 199 q 330 118 278 118 q 404 156 385 118 q 423 355 423 194 l 423 387 l 423 432 q 403 626 423 586 q 332 666 384 666 q 261 629 280 666 q 242 454 242 593 l 242 400 m 56 392 q 117 717 56 629 q 332 806 178 806 q 547 717 486 806 q 609 392 609 629 q 547 66 609 154 q 332 -21 486 -21 q 117 66 178 -21 q 56 392 56 154 m 236 868 l 354 1061 l 528 1061 l 320 868 l 236 868 "}}}
